<?xml version="1.0" encoding="UTF-8"?>
<svg version="1.1" viewBox="0 0 2048 2048" width="1280" height="1280" xmlns="http://www.w3.org/2000/svg">
<path transform="translate(66,596)" d="m0 0 14 5 8-1 11 2v-2l6 1v2h14l9 1 1-2 5 2 1 1 13 2 5 2 13 3h11l6 2 13 1 15 3h8l10 4 9 3 3 2 5-1 30 7 12 2 15 3 15 7 16 4 52 15 15 5 16 8 50 18 25 10 23 10 23 15 23 11 20 10 22 12 24 14 38 24 16 12 16 13 13 11 10 9 14 11 14 12 11 9 9 8 10 8 8 8 8 7 38 38 7 8 8 9-3-12-9-19-8-20-10-21-10-14-7-9-8-7-7-7-15-11-10-6-5-5 1-5 4-4 17-6h10l15-5 14-2 9-2 12-1h9l3-1 3 1 7-2 16-1h30l4-1 6 4 7-1 12 2h6l5 1 8 1 20 5 17 6 13 8 13 7 4 2 4-1 14-7 26-11 18-7h9l4-2 19-3 11-3h11l5-1 6 2h9l4 1 4-2 10 1 7-1 6 1 7-1 13 1 10 3 9 2 4-1 11 3 14 2 16 3 15 4 5 2 1 3v8l-15 12-11 7-3 3h-2v2l-5 5-3 1v2l-5 4-1 2h-2l-2 4-6 8-9 14-8 16-8 19-9 27v1l12-13 7-8 10-10h2l2-4 20-20 8-7 11-10 8-7 11-9 10-9 9-7 17-14 18-14 12-9 11-8 13-9 16-11 14-9 13-8 31-19 23-12 10-6 19-9 32-16 13-6 16-7 26-11 19-7 32-12 12-3 20-7 13-5 10-3 14-3 26-8 16-4 26-6 21-6h7l32-7 20-4h8l36-7 13-2h17l10-2 21-3 14-3 1 2-8 21-8 17-9 15-9 12-12 14-24 24-8 7-13 11-13 10-16 12-12 8-9 7-16 11-10 6-17 12-16 10-15 9-10 7-23 14-15 9-17 11-8 4h-2l-1 4 10-1h9l5-1 1 1 8 1v-3h12l5-1 11 1 5-1 9 2h26l22 1 19 3 14 5 1 4-10 15-10 13-11 12-7 8-19 19-10 8-16 13-19 13-19 12-5 4-25 13-19 10-19 9-16 6-26 11-25 7-31 10-5 1 11 2h13l37 3 17 3 20 4 32 5 19 4h6l-2 5-11 14-11 13-9 11-12 14-9 10-11 12-6 7-19 19-8 7-5 6-10 8-13 11-14 10-13 9-11 7-17 9-23 10-15 5h-6l-10 3-12 3-18 3-4 1h-8l-7-2-3 1h-15l-5 1-11-1v2l-12-2h-7l-5 1-5-3-10-1-12-1-2 3-1-4-9 1-8-1-2 1h-13l-1 1h-9l-5 1-2 6-1 1v9l6 16 11 17 18 24 9 10 9 11 11 12 25 25 11 9 10 9 17 13 23 16 11 6 13 8 16 8 23 12 13 8 21 8 36 10 27 6 12 3 5 2 26 3 1 3-11 4-18 5-19 7-21 6-30 6-16 4-8 1-9 1-4-1-7 2-7 1h-9l-5 3-11-2v2l-3 1-3-1h-5l-7 2-3-4-7 2-5-1-3-1-2 3-12-2-1 2h-7l-8-3-2 4-2-1-2-3-1 2h-10l-4-3-10-2h-6l-1 1h-5l-6-2-19-2-2-1-15-2-12-3-13-5-17-4-38-11-22-8-19-10-9-6-12-5-19-10-22-12-18-11-11-8-16-11-13-10-16-13-10-9-7-7-8-7-14-14-7 6-16 16-8 7-11 10-25 20-12 9-27 18-25 15-25 13-18 10-14 5-15 7-18 7-9 1-6 3-9 3-28 9-7 1-4-1-9 4-11 2-20 4h-4l-7 2-9-2-9 3-8 1-3-1-3 3h-9l-5-2-2 4-6-1-1-1h-8l-7-4-2 4-6-1-5-1-1 2h-6l-1-1-7 1-3 1-1-1h-13-4l-5 1-10-4-16-2-4 1-4-1-8-1-8-2h-5l-4 1-8-3-10-1-27-9-37-10-20-7-5-3v-3l17-3 19-4 13-1 38-11 19-6 30-13 19-8 20-11 14-8 12-7 22-16 14-10 16-13 9-8 38-38 7-8 9-10 11-14 13-18 9-13 5-10v-9l-3-9-9-3-11-3-21 1-24 4h-13l-8-3-3 3-4 1-40 2h-8l-9-4-9-2-3 3-13-4h-9l-10-4h-6l-6-3-16-5-12-6-15-10-16-9-16-11-18-14-13-12-10-9-33-33-7-8-11-12-8-10-12-14-10-13-6-7-6-10 1-3 13-1 15-5 20-4 9-2 25-2 4-2 21-2 1-1 30-1v-2l-30-10-8-5-7-2-9-3-20-7-19-8-30-13-24-13-10-8-12-9-12-8-18-13-9-7-14-13-8-7-18-18-7-8-9-11-11-17-3-7 6-2 13-2 11-5 10 1 1-2h7l4 2 1-4 16 1h2 13l8-1 7 1 2-2 14 1 1-2 6 1 2 2 6 1v1h18l2-1-10-7-15-9-17-10-13-9-21-16-21-13-16-10-36-24-20-14-10-8-17-13-13-11-20-18-9-10-7-8-10-13-10-15-10-21-5-15-1-10zm856 265-12 4-9 7-4 10-1 4v11l4 9 7 8 8 4 5 1h8l13-5 7-8 4-9 1-10-3-10-4-6-5-5-9-4zm198 9-11 4-8 6-2 3 1 9 5 9 8 9 8 4h8l7-1 9-10 5-8 1-6-3-9-6-7-4-3z" fill="#7DA806"/>
<path transform="translate(66,596)" d="m0 0 14 5 8-1 11 2v-2l6 1v2h14l9 1 1-2 5 2 1 1 13 2 5 2 13 3h11l6 2 13 1 15 3h8l10 4 9 3 3 2 5-1 30 7 12 2 15 3 15 7 16 4 52 15 15 5 16 8 50 18 25 10 23 10 23 15 23 11 20 10 22 12 24 14 38 24 16 12 16 13 13 11 10 9 14 11 14 12 11 9 9 8 10 8 8 8 8 7 38 38 7 8 8 9h2l8 33 7 33 4 15 5 33 5 30 7 22 7 24 6 21 9 26 8 16 13 24 9 19 13 23 10 16 18 27 9 12 14 17 9 11 4 4v2h2l8 10-6 7-17 17-8 7-11 10-25 20-12 9-27 18-25 15-25 13-18 10-14 5-15 7-18 7-9 1-6 3-9 3-28 9-7 1-4-1-9 4-11 2-20 4h-4l-7 2-9-2-9 3-8 1-3-1-3 3h-9l-5-2-2 4-6-1-1-1h-8l-7-4-2 4-6-1-5-1-1 2h-6l-1-1-7 1-3 1-1-1h-13-4l-5 1-10-4-16-2-4 1-4-1-8-1-8-2h-5l-4 1-8-3-10-1-27-9-37-10-20-7-5-3v-3l17-3 19-4 13-1 38-11 19-6 30-13 19-8 20-11 14-8 12-7 22-16 14-10 16-13 9-8 38-38 7-8 9-10 11-14 13-18 9-13 5-10v-9l-3-9-9-3-11-3-21 1-24 4h-13l-8-3-3 3-4 1-40 2h-8l-9-4-9-2-3 3-13-4h-9l-10-4h-6l-6-3-16-5-12-6-15-10-16-9-16-11-18-14-13-12-10-9-33-33-7-8-11-12-8-10-12-14-10-13-6-7-6-10 1-3 13-1 15-5 20-4 9-2 25-2 4-2 21-2 1-1 30-1v-2l-30-10-8-5-7-2-9-3-20-7-19-8-30-13-24-13-10-8-12-9-12-8-18-13-9-7-14-13-8-7-18-18-7-8-9-11-11-17-3-7 6-2 13-2 11-5 10 1 1-2h7l4 2 1-4 16 1h2 13l8-1 7 1 2-2 14 1 1-2 6 1 2 2 6 1v1h18l2-1-10-7-15-9-17-10-13-9-21-16-21-13-16-10-36-24-20-14-10-8-17-13-13-11-20-18-9-10-7-8-10-13-10-15-10-21-5-15-1-10z" fill="#A50229"/>
<path transform="translate(1138,804)" d="m0 0 9 2h9l4 1 4-2 10 1 7-1 6 1 7-1 13 1 10 3 9 2 4-1 11 3 14 2 16 3 15 4 5 2 1 3v8l-15 12-11 7-3 3h-2v2l-5 5-3 1v2l-5 4-1 2h-2l-2 4-6 8-9 14-8 16-8 19-9 27-5 10-10 9-14 10-6 3-8-1-9-6-7-7-9-11-7-8-11-16-11-18-13-19-11-13-7-8-13-13-3-2v-2l-4-2-12-10-11-7-5-3v-2l-5-2-2-3 11-6 26-11 17-7 8-3h9l4-2 19-3 11-3h11zm-18 66-11 4-8 6-2 3 1 9 5 9 8 9 8 4h8l7-1 9-10 5-8 1-6-3-9-6-7-4-3z" fill="#A50229"/>
<path transform="translate(1778,852)" d="m0 0" fill="#7DA806"/>
</svg>
