<svg xmlns="http://www.w3.org/2000/svg" style="display: none;">


    <symbol id="icon-help" viewBox="0 0 24 24">
        <path d="M12 2C6.48 2 2 6.48 2 12s4.48 10 10 10 10-4.48 10-10S17.52 2 12 2zm1 17h-2v-2h2v2zm2.07-7.75l-.9.92C13.45 12.9 13 13.5 13 15h-2v-.5c0-1.1.45-2.1 1.17-2.83l1.24-1.26c.37-.36.59-.86.59-1.41 0-1.1-.9-2-2-2s-2 .9-2 2H8c0-2.21 1.79-4 4-4s4 1.79 4 4c0 .88-.36 1.68-.93 2.25z"/>
    </symbol>

    <symbol id="icon-share" viewBox="0 0 24 24">
         <path d="M18 16.08c-.76 0-1.44.3-1.96.77L8.91 12.7c.05-.23.09-.46.09-.7s-.04-.47-.09-.7l7.05-4.11c.54.5 1.25.81 2.04.81 1.66 0 3-1.34 3-3s-1.34-3-3-3-3 1.34-3 3c0 .24.04.47.09.7L8.04 9.81C7.5 9.31 6.79 9 6 9c-1.66 0-3 1.34-3 3s1.34 3 3 3c.79 0 1.5-.31 2.04-.81l7.12 4.16c-.05.21-.08.43-.08.65 0 1.61 1.31 2.92 2.92 2.92 1.61 0 2.92-1.31 2.92-2.92s-1.31-2.92-2.92-2.92z"
         transform="translate(-1,0)" />
    </symbol>

    <symbol id="icon-drag" viewBox="0 0 24 24">
        <path d="M9 11.24V7.5C9 6.12 10.12 5 11.5 5S14 6.12 14 7.5v3.74c1.21-.81 2-2.18 2-3.74C16 5.01 13.99 3 11.5 3S7 5.01 7 7.5c0 1.56.79 2.93 2 3.74zm9.84 4.63l-4.54-2.26c-.17-.07-.35-.11-.54-.11H13v-6c0-.83-.67-1.5-1.5-1.5S10 6.67 10 7.5v10.74l-3.43-.72c-.08-.01-.15-.03-.23-.03-.31 0-.59.13-.79.33l-.79.8 4.94 4.94c.27.27.65.44 1.06.44h6.79c.75 0 1.33-.55 1.44-1.28l.75-5.27c.01-.07.02-.14.02-.2 0-.62-.38-1.16-.91-1.38z"/>
    </symbol>

    <symbol id="icon-left" viewBox="0 0 24 24">
        <path d="M12 4l1.41 1.41L7.83 11H20v2H7.83l5.58 5.59L12 20l-8-8 8-8z"/>
    </symbol>

    <symbol id="icon-down" viewBox="0 0 24 24">
        <path d="M20 12l-1.41-1.41L13 16.17V4h-2v12.17l-5.58-5.59L4 12l8 8 8-8z"/>
    </symbol>

    <symbol id="icon-right" viewBox="0 0 24 24">
        <path d="M12 4l-1.41 1.41L16.17 11H4v2h12.17l-5.58 5.59L12 20l8-8-8-8z"/>
    </symbol>

    <symbol id="icon-up" viewBox="0 0 24 24">
        <path d="M4 12l1.41 1.41L11 7.83V20h2V7.83l5.58 5.59L20 12l-8-8-8 8z"/>
    </symbol>

    <symbol id="icon-heart" viewBox="0 0 24 24">
        <path d="M12 21.35l-1.45-1.32C5.4 15.36 2 12.28 2 8.5 2 5.42 4.42 3 7.5 3c1.74 0 3.41.81 4.5 2.09C13.09 3.81 14.76 3 16.5 3 19.58 3 22 5.42 22 8.5c0 3.78-3.4 6.86-8.55 11.54L12 21.35z"/>
    </symbol>
    <symbol id="icon-info" viewBox="0 0 24 24">
        <path d="M12 2C6.48 2 2 6.48 2 12s4.48 10 10 10 10-4.48 10-10S17.52 2 12 2zm1 15h-2v-6h2v6zm0-8h-2V7h2v2z"/>
    </symbol>

    <symbol id="icon-search" viewBox="0 0 24 24">
        <path d="M15.5 14h-.79l-.28-.27C15.41 12.59 16 11.11 16 9.5 16 5.91 13.09 3 9.5 3S3 5.91 3 9.5 5.91 16 9.5 16c1.61 0 3.09-.59 4.23-1.57l.27.28v.79l5 4.99L20.49 19l-4.99-5zm-6 0C7.01 14 5 11.99 5 9.5S7.01 5 9.5 5 14 7.01 14 9.5 11.99 14 9.5 14z"/>
    </symbol>

    <symbol id="icon-user" viewBox="0 0 24 24">
        <path d="M12 2C6.48 2 2 6.48 2 12s4.48 10 10 10 10-4.48 10-10S17.52 2 12 2zm0 3c1.66 0 3 1.34 3 3s-1.34 3-3 3-3-1.34-3-3 1.34-3 3-3zm0 14.2c-2.5 0-4.71-1.28-6-3.22.03-1.99 4-3.08 6-3.08 1.99 0 5.97 1.09 6 3.08-1.29 1.94-3.5 3.22-6 3.22z"/>
    </symbol>

    <symbol id="icon-menu" viewBox="0 0 24 24">
        <path d="M3 18h18v-2H3v2zm0-5h18v-2H3v2zm0-7v2h18V6H3z"/>
    </symbol>

    <symbol id="icon-three-dots" viewBox="0 0 24 24">
        <path d="M6 10c-1.1 0-2 .9-2 2s.9 2 2 2 2-.9 2-2-.9-2-2-2zm12 0c-1.1 0-2 .9-2 2s.9 2 2 2 2-.9 2-2-.9-2-2-2zm-6 0c-1.1 0-2 .9-2 2s.9 2 2 2 2-.9 2-2-.9-2-2-2z"/>
    </symbol>

    <symbol id="icon-trash" viewBox="0 0 24 24">
        <path d="M6 19c0 1.1.9 2 2 2h8c1.1 0 2-.9 2-2V7H6v12zM19 4h-3.5l-1-1h-5l-1 1H5v2h14V4z"/>
    </symbol>

    <symbol id="icon-thumb-up" viewBox="0 0 24 24">
        <path d="M1 21h4V9H1v12zm22-11c0-1.1-.9-2-2-2h-6.31l.95-4.57.03-.32c0-.41-.17-.79-.44-1.06L14.17 1 7.59 7.59C7.22 7.95 7 8.45 7 9v10c0 1.1.9 2 2 2h9c.83 0 1.54-.5 1.84-1.22l3.02-7.05c.09-.23.14-.47.14-.73v-2z" transform="scale(0.8) translate(3,3)"/>
    </symbol>

    <symbol id="icon-thumb-down" viewBox="0 0 24 24">
        <path d="M15 3H6c-.83 0-1.54.5-1.84 1.22l-3.02 7.05c-.09.23-.14.47-.14.73v2c0 1.1.9 2 2 2h6.31l-.95 4.57-.03.32c0 .41.17.79.44 1.06L9.83 23l6.59-6.59c.36-.36.58-.86.58-1.41V5c0-1.1-.9-2-2-2zm4 0v12h4V3h-4z" transform="scale(0.8) translate(3,3)"/>
    </symbol>
    <symbol id="icon-settings" viewBox="0 0 24 24">
        <path d="M19.14 12.94c.04-.3.06-.61.06-.94 0-.32-.02-.64-.07-.94l2.03-1.58c.18-.14.23-.41.12-.61l-1.92-3.32c-.12-.22-.37-.29-.59-.22l-2.39.96c-.5-.38-1.03-.7-1.62-.94l-.36-2.54c-.04-.24-.24-.41-.48-.41h-3.84c-.24 0-.43.17-.47.41l-.36 2.54c-.59.24-1.13.57-1.62.94l-2.39-.96c-.22-.08-.47 0-.59.22L2.74 8.87c-.12.21-.08.47.12.61l2.03 1.58c-.05.3-.09.63-.09.94s.02.64.07.94l-2.03 1.58c-.18.14-.23.41-.12.61l1.92 3.32c.12.22.37.29.59.22l2.39-.96c.5.38 1.03.7 1.62.94l.36 2.54c.05.24.24.41.48.41h3.84c.24 0 .44-.17.47-.41l.36-2.54c.59-.24 1.13-.56 1.62-.94l2.39.96c.22.08.47 0 .59-.22l1.92-3.32c.12-.22.07-.47-.12-.61l-2.01-1.58zM12 15.6c-1.98 0-3.6-1.62-3.6-3.6s1.62-3.6 3.6-3.6 3.6 1.62 3.6 3.6-1.62 3.6-3.6 3.6z"/>
    </symbol>

    <symbol id="icon-report" viewBox="0 0 24 24">
        <path d="M14.4 6L14 4H5v17h2v-7h5.6l.4 2h7V6z"/>
    </symbol>
    <symbol id="icon-keyboard" viewBox="0 0 24 24">
        <path d="M20 5H4c-1.1 0-1.99.9-1.99 2L2 17c0 1.1.9 2 2 2h16c1.1 0 2-.9 2-2V7c0-1.1-.9-2-2-2zm-9 3h2v2h-2V8zm0 3h2v2h-2v-2zM8 8h2v2H8V8zm0 3h2v2H8v-2zm-1 2H5v-2h2v2zm0-3H5V8h2v2zm9 7H8v-2h8v2zm0-4h-2v-2h2v2zm0-3h-2V8h2v2zm3 3h-2v-2h2v2zm0-3h-2V8h2v2z"/>
    </symbol>
    <symbol id="icon-random" viewBox="0 0 24 24">
        <path d="M10.59 9.17L5.41 4 4 5.41l5.17 5.17 1.42-1.41zM14.5 4l2.04 2.04L4 18.59 5.41 20 17.96 7.46 20 9.5V4h-5.5zm.33 9.41l-1.41 1.41 3.13 3.13L14.5 20H20v-5.5l-2.04 2.04-3.13-3.13z"/>
    </symbol>

    <symbol id="icon-list" viewBox="0 0 24 24">
        <path d="M3 13h2v-2H3v2zm0 4h2v-2H3v2zm0-8h2V7H3v2zm4 4h14v-2H7v2zm0 4h14v-2H7v2zM7 7v2h14V7H7z"/>
    </symbol>

    <symbol id="icon-plus" viewBox="0 0 24 24">
        <path d="M19 13h-6v6h-2v-6H5v-2h6V5h2v6h6v2z"/>
    </symbol>

    <symbol id="icon-stats" viewBox="0 0 24 24">
        <path d="M3.5 18.49l6-6.01 4 4L22 6.92l-1.41-1.41-7.09 7.97-4-4L2 16.99z"/>
    </symbol>
    <symbol id="icon-camera" viewBox="0 0 24 24">
        <path d="M9 3L7.17 5H4c-1.1 0-2 .9-2 2v12c0 1.1.9 2 2 2h16c1.1 0 2-.9 2-2V7c0-1.1-.9-2-2-2h-3.17L15 3H9zm3 15c-2.76 0-5-2.24-5-5s2.24-5 5-5 5 2.24 5 5-2.24 5-5 5z"/>
        <circle cx="12" cy="13" r="3"/>
    </symbol>
    <symbol id="icon-microscope" viewBox="0 0 24 24">
        <path d="M20 15.31L23.31 12 20 8.69V4h-4.69L12 .69 8.69 4H4v4.69L.69 12 4 15.31V20h4.69L12 23.31 15.31 20H20v-4.69zM12 18c-3.31 0-6-2.69-6-6s2.69-6 6-6 6 2.69 6 6-2.69 6-6 6z"/>
    </symbol>
   <symbol id="icon-link" viewBox="0 0 24 24">
    <path d="M3.9 12c0-1.71 1.39-3.1 3.1-3.1h4V7H7c-2.76 0-5 2.24-5 5s2.24 5 5 5h4v-1.9H7c-1.71 0-3.1-1.39-3.1-3.1zM8 13h8v-2H8v2zm9-6h-4v1.9h4c1.71 0 3.1 1.39 3.1 3.1s-1.39 3.1-3.1 3.1h-4V17h4c2.76 0 5-2.24 5-5s-2.24-5-5-5z"/>
    </symbol> 
      <symbol id="icon-lightbulb" viewBox="0 0 24 24">
        <path d="M9 21c0 .55.45 1 1 1h4c.55 0 1-.45 1-1v-1H9v1zm3-19C8.14 2 5 5.14 5 9c0 2.38 1.19 4.47 3 5.74V17c0 .55.45 1 1 1h6c.55 0 1-.45 1-1v-2.26c1.81-1.27 3-3.36 3-5.74 0-3.86-3.14-7-7-7zm2.85 11.1l-.85.6V16h-4v-2.3l-.85-.6C7.8 12.16 7 10.63 7 9c0-2.76 2.24-5 5-5s5 2.24 5 5c0 1.63-.8 3.16-2.15 4.1z"/>
      </symbol>
    <symbol id="icon-close" viewBox="0 0 24 24">
        <path d="M19 6.41L17.59 5 12 10.59 6.41 5 5 6.41 10.59 12 5 17.59 6.41 19 12 13.41 17.59 19 19 17.59 13.41 12z"/>
    </symbol>
    <symbol id="icon-star" viewBox="0 0 24 24">
        <path d="M12 17.27L18.18 21l-1.64-7.03L22 9.24l-7.19-.61L12 2 9.19 8.63 2 9.24l5.46 4.73L5.82 21z"/>
    </symbol>
    <symbol id="icon-phylogeny" viewBox="0 0 24 24">
        <path d="M18 16.08c-.76 0-1.44.3-1.96.77L8.91 12.7c.05-.23.09-.46.09-.7s-.04-.47-.09-.7l7.05-4.11c.54.5 1.25.81 2.04.81 1.66 0 3-1.34 3-3s-1.34-3-3-3-3 1.34-3 3c0 .24.04.47.09.7L8.04 9.81C7.5 9.31 6.79 9 6 9c-1.66 0-3 1.34-3 3s1.34 3 3 3c.79 0 1.5-.31 2.04-.81l7.12 4.16c-.05.21-.08.43-.08.65 0 1.61 1.31 2.92 2.92 2.92 1.61 0 2.92-1.31 2.92-2.92s-1.31-2.92-2.92-2.92z"
 transform="rotate(90 12 12)"/>
    </symbol>
    <symbol id="icon-globe" viewBox="0 0 24 24">
        <path d="M12 2C6.48 2 2 6.48 2 12s4.48 10 10 10 10-4.48 10-10S17.52 2 12 2zm-1 17.93c-3.95-.49-7-3.85-7-7.93 0-.62.08-1.21.21-1.79L9 15v1c0 1.1.9 2 2 2v1.93zm6.9-2.54c-.26-.81-1-1.39-1.9-1.39h-1v-3c0-.55-.45-1-1-1H8v-2h2c.55 0 1-.45 1-1V7h2c1.1 0 2-.9 2-2v-.41c2.93 1.19 5 4.06 5 7.41 0 2.08-.8 3.97-2.1 5.39z"/>
    </symbol>
  <symbol id="icon-qr" viewBox="0 0 24 24">
    <path d="M3 3h8v8H3V3zm2 2v4h4V5H5zm8-2h8v8h-8V3zm2 2v4h4V5h-4zM3 13h8v8H3v-8zm2 2v4h4v-4H5zm13-2h3v3h-3v-3zm0 5h3v3h-3v-3zm-5 0h3v3h-3v-3zm5-5h3v3h-3v-3z"/>
  </symbol>
  <symbol id="icon-wiki" viewBox="0 0 24 24">
      <path d="M12 2C6.48 2 2 6.48 2 12s4.48 10 10 10 10-4.48 10-10S17.52 2 12 2zm7.09 7.73c-.67 1.52-2.74 6.36-4.12 9.51h-.36l-2.17-5.12c-.86 1.69-1.82 3.45-2.63 5.12h-.4c-1.25-2.91-2.54-5.81-3.8-8.72-.29-.71-1.31-1.86-2-1.85V7.9h4.3v.37c-.5.02-1.38.35-1.15.9.61 1.31 2.75 6.38 3.33 7.66.4-.79 1.53-2.9 2-3.79-.36-.75-1.57-3.54-1.93-4.24-.27-.46-.96-.52-1.48-.52V7.9h3.78v.34c-.51.01-1 .2-.78.69.51 1.06.8 1.81 1.27 2.78.15-.29.91-1.85 1.28-2.68.22-.55-.11-.76-1.03-.78V7.9h3.26v.34c-.6.02-1.22.34-1.54.84l-1.57 3.26c.17.43 1.68 3.79 1.84 4.16l3.12-7.46c-.23-.61-.97-.74-1.26-.75V7.9H21v.34c-.55.03-1.02.39-1.29.91z"/>
    </symbol>
    <symbol id="icon-spicy" viewBox="0 0 24 24">
        <path d="M21 5.5c-1.8-.4-2.6.1-3.2 2.3-.1 0-.2-.1-.4-.1-1.2-.6-1.7.7-1.7.7 1.2-.1 1.9.5 2.4 1.4 0 0 .3-1.2-.3-1.9.6-1.1 1.3-1.6 3.2-1.9l-.4-.8-1.4.3zm-5 2.7c-2.5-.5-3.6 3.6-6 5.6-2.4 2-5 2.3-5 2.3s1.1 1.1 4.6.7c1.9-.2 10.2-3.7 8.4-7.1-.5-.6-1.1-1.2-2-1.5zm0 1.6c-.1 0-.3-.2-.8 0-.5.2-1.1 1.2-1.1 1.2-2 3.1-5.5 4.4-4.9 4.1.6-.3 2.2-1.7 2.8-2.5.6-.8 1.9-2.6 2.6-3.3.7-.7 1.8-.2 1.8-.2s-.3.7-.4.7z"
        transform="scale(1.5) translate(-4,-4) rotate(-20 12 12)"/>
    </symbol>

    <symbol id="icon-inat" viewBox="0 0 24 24">
        <path d="M3.5 2C8.4 2.6 12 4.3 14.7 7.4c0.1 0.1 0.4 0.4 0.6 0.3c0.2-0.1 0.5-0.6 0.6-0.7c0.2-0.3 0.8-1.2 2-1.6c1.2-0.4 2.8 0 2.9 0.1c0.1 0 0.2 0.1 0.2 0.2c-0.1 0.1-0.6 0.3-0.9 0.9c-0.4 0.7-0.6 2.1-0.7 2.4c-0.2 1.2-0.7 2.4-1.5 3.4c-1.3 1.7-3.4 2.9-5.8 3.1c-1.3 0.1-2.6-0.1-3.7-0.5c1.4-0.1 3.1-0.8 4.4-2.3c1.7-1.9-0.2-0.9-1.8-1.2c-1.1-0.2-2-0.7-3.5-2.6c0.5-0.1 1.5-0.3 2.2-0.3c-1.4-0.3-3.3-1.2-4.2-2.5c0.7-0.2 1.6-0.1 2.3-0.1C7 5.2 5.8 4.3 5.5 3.2C5.7 3.3 7.9 4.4 9.1 5.9c1.6 2.1 1.7 4.2 1.2 3.7c-1-1.1-2-1.8-3.2-2.6C6.2 6.4 5.4 4.5 5 3L3.5 2z"
        transform="scale(1.2) translate(-2, 0)" />
    </symbol>

    <symbol id="icon-inat_orig" viewBox="0 0 24 24">
        <path d="m 77.100161,84.853783 c 15.610694,1.539814 27.881719,7.053574 36.813079,16.541287 0.3486,0.37032 1.31664,1.41745 2.05637,1.15812 0.73973,-0.25934 1.64248,-1.88238 2.03734,-2.44747 0.62005,-0.887373 2.53553,-4.035833 6.70492,-5.332494 4.16939,-1.296658 9.45253,0.146275 9.64436,0.210131 0.36054,0.120013 0.72446,0.277383 0.51671,0.558477 -0.20774,0.281095 -1.97285,0.957645 -3.17209,3.167186 -1.28296,2.36383 -2.037,6.93707 -2.22201,7.94495 -0.72869,4.15066 -2.47607,7.99926 -5.0033,11.27005 -4.44644,5.75466 -11.30693,9.7207 -19.28069,10.39638 -4.35909,0.36938 -8.566825,-0.28562 -12.369928,-1.7591 4.608578,-0.43578 10.186398,-2.54379 14.666958,-7.59088 5.65331,-6.36813 -0.53353,-3.06164 -5.84613,-3.90447 -3.722122,-0.59051 -6.751656,-2.43351 -11.836305,-8.66661 1.631118,-0.43934 4.846601,-0.9753 7.440296,-1.08216 -4.79745,-1.06149 -11.161925,-3.9852 -13.977852,-8.48941 2.26303,-0.756386 5.240888,-0.481741 7.620088,-0.382217 C 81.830162,91.190795 77.922008,88.36008 77.100161,84.853783 Z m 21.653916,-5.7053 c 0.535536,0.251532 8.609083,3.629166 12.508153,8.687616 5.44711,7.066794 5.64886,13.874261 4.16939,12.318261 -3.47653,-3.656375 -6.67267,-5.997712 -10.62521,-8.622782 -3.02617,-2.009821 -5.048568,-7.738136 -6.052333,-12.383095 z m 27.964503,17.06155 c -0.80891,0.06841 -1.40729,0.757765 -1.33652,1.539714 0.0708,0.781949 0.78389,1.360387 1.5928,1.291976 0.80891,-0.06841 1.40729,-0.757766 1.33652,-1.539715 -0.0708,-0.781949 -0.7839,-1.360386 -1.5928,-1.291975 z" />
    </symbol>


    <symbol id="icon-birds" viewBox="0 0 512 512">
        <path d="M387 295c-18-2-30-2-46-8-17 30-22 55-35 76-12 23-32 44-78 68l0 1c-3-24-5-45-4-64 2-2 4-4 7-6 28-25 39-51 76-83 1-1 2-3 2-5 0-1-2-3-3-3-2-1-4 0-5 1-38 33-50 60-76 83-1 1-1 1-1 1-1 1-2 2-3 2 0 1-1 1-1 1-1 1-2 2-3 2 0 1 0 1-1 1-1 1-2 1-3 2 0 0 0 0 0 0-1 1-3 2-4 3 0 0 0 0 0 0-1 1-2 2-3 3 0 0-1 0-1 0-1 1-2 2-3 2 0 0 0 0 0 0-1 1-1 1-2 2-1 0-1 0-2 1-1 0-2 1-3 2l0 0c-29 16-71 33-141 50 3-15 52-37 73-46 0 0-62 13-92 13 36-20 102-38 102-38 0 0-47 0-77 3 38-25 78-28 78-28 0 0-28-9-50-8 22-17 57-18 57-18 0 0-23-4-40-7 15-10 42-16 42-16 0 0-15-4-31-8 16-8 40-10 40-10 0 0-12-3-24-6 12-9 20-12 20-12 0 0 0-4-8-6 9-7 15-6 15-6 0 0-1-5-7-3 5-10 11-8 11-8 0 0 0-1-1-3 0 0 0 0 0 0 0 0 1-1 1-1 1-1 2-2 4-2 0 0 0 0 0 0 1-1 2-2 3-3 0 0 1 0 1 0 0 0 0 0 0-1 0 0 0 0 1 0 1-1 2-1 3-2 0 0 0 0 1-1 0 0 0 0 0 0 1-1 3-1 4-2 1-1 2-1 3-2 0 0 0 0 0 0 1 0 2-1 2-1 1-1 3-1 4-2 0 0 1 0 1 0 1-1 3-2 4-2 2-1 3-2 5-3 1 0 1 0 2-1 1 0 1 0 2 0 0 0 1-1 1-1 0 0 0 0 0 0 1 0 1-1 1-1 1 0 2 0 3-1 1 0 1 0 2-1 0 0 1 0 1 0 1 0 2-1 3-1 1 0 2-1 2-1 1 0 2-1 3-1 1 0 3-1 4-1 1 0 1-1 2-1 0 0 0 0 0 0 2 0 4-1 6-1 2-1 4-2 6-2 2-1 4-1 6-2 2 0 4-1 7-1 0 0 0 0 0 0 13-4 28-6 44-8 2 0 4-2 4-5-1-2-3-4-5-4-16 2-32 5-46 8-3-13-7-26-11-39-10-20-34-28-50-43-1-1-1-5 1-5 17 0 37 7 54 15 16 7 25-10 38-13 19-5 39-8 58-2 19 5 37 16 49 32 16 20 23 45 24 69 3 26 4 46 18 62 13 15 21 24 49 36 1 9-61 12-90 10z m5-47c-8 0-15 7-15 16 0 8 7 15 15 15 9 0 16-7 16-15 0-9-7-16-16-16z" transform="scale(1, -1) translate(0, -512)"/>
    </symbol>

    <symbol id="icon-amphibians" viewBox="0 0 512 512">
        <path d="M447 172c-19-6-23-20-34-16 2 4 9 22 13 25 11 13-8 25-21 17-6-4-8-30-15-31-13-2-6 26-19 19-8-4-12-15-5-20 5-3 19-12 8-23l0 0c-32-4-95-13-90-8 22 18 63 40 96 65 29 21 51 44 48 67 0 1-1 2-1 3-1 1-2 2-3 3-4 2-9 3-16 3-14 0-33-4-53-10-20-5-41-12-58-17-9-3-17-5-24-6-7-2-13-2-18-1-3 1-5 4-4 7 1 3 4 4 7 4 2-1 7-1 13 0 6 2 14 4 23 6 17 5 38 12 58 18 20 6 40 10 56 10 2 0 5 0 7 0 2 3 4 5 4 5 3 4 7 7 11 6 11-1 8-14 16-14 5 0 9 5 9 10-1 7-8 6-11 11-9 18 16 6 21 8 6 3 4 11-1 14-1 0-2 0-4 0 0 0-1 0-1 0-6-1-15-4-15 2 0 7 18 15 4 22-18 10-9-19-15-20 0 0-1 0-1 0-1 0-2 0-3 1 0 0-1 0-1 1 0 0-1 0-1 1-3 4-1 11-7 13-2 2-4 2-5 1 0 0-1 0-1 0-5-2-7-12-3-17 4-5 12-5 7-14 0-1-1-2-2-2 0-1-1-1-1-2-6-7-18-16-23-19-2-1-4 0-5 1 2 27 5 49 20 67 17 19 44 32 36 54-7 21-50 6-87 3 0 0-1 0-2 0 0 0 0 0-1 0-8-1-15 12-30 12-1 0-2 0-4 0-17-3-15-20-22-23 0 0 0 0 0 0 0 0 0 0 0 0 0 0 0 0-1 0 0 0 0 0 0 0-13-5-27-11-44-21-1 0-2-1-4-2 0 0 0 0 0 0-32-23-44-54-49-82-1-4-5-7-9-7-5 1-8 5-7 10 1 7 3 15 5 22-30-23-55-69-75-91-5-3-4 37-4 59 0 12 20 0 24-2 6-4 18 2 12 10-6 9-26 3-25 11 0 5 21 13 24 17 7 9-8 21-20 12-2-2-15-19-18-20-6 7-3 15-5 30-2 14-18 18-22 0-4-18 17-37 2-36-8 0-15 9-22 12-7 3-19 3-14-11 4-11 25-14 34-16 1 0 2-1 4-1 0 0 0 0 0 0 0 0 0 0 0 0 12-9-9-93 23-92 16 0 36 29 50 33 8 2 14-22 17-42 0-14 4-24 15-29 19-8 53-15 79-16-12-12-30-21-25-38 18-17 113 9 142 0 7-2 10-32 31-35 23-2 27 17 27 24 1 7-28 15-29 23-2 14 9 2 35 9 27 8 24 28-1 33z m-102 224c13 0 23-10 23-23 0-12-10-22-23-22-12 0-22 10-22 22 0 13 10 23 22 23z" transform=" scale(1, -1) translate(0, -512)" />
    </symbol>

    <symbol id="icon-reptiles" viewBox="0 0 512 512">
        <path d="M445 385c5 5 11 12 12 19-1 3-17-18-31-17-5 0-11-1-16-2-3 12-16 19-45 20-3 0-7 0-10-1-1 0-1 0-2 0 0 0-1 0-1 0-8-1-14 12-29 11-1 0-2 0-3 0-13-2-14-14-18-19-12-4-26-10-44-21-64-59-62-134-97-151-52-15-70 0-99-28-13-19-17-36-1-64 16-29 60-43 114-21 53 23 108 169 112 176 8 26 96 30 114 64 3 5 5 9 7 13 19 13 50 12 53 16-1 2-7 4-16 5z m-101-44c-11 0-21 9-21 21 0 11 10 21 21 21 12 0 21-10 21-21 0-12-9-21-21-21z m51-139c-43 11-84 17-123 19-3-7-7-14-11-22-11-21-23-42-36-60-14-17-28-32-45-40-1 0-1 0-2 0 25 0 51 2 77 6 63 8 122 22 135 26 12 4 22 20 23 36 1 7 0 15-3 21-3 7-7 11-15 14z m-21 43c-23 11-51 20-80 26-2-4-4-10-7-17-3-7-6-14-10-23 35-3 74-8 114-18 1 13-4 27-17 32z m-219-13c12 15 20 32 28 51 1 1 1 2 2 3-7 0-14 0-21 0-1 0-3 0-4 0-24 0-41-2-46-6-14-12-18-35-7-50 16 1 32 2 48 2z m2 65c-22 26-20 51-26 51-3-3-2-31 3-53 8 1 15 1 23 2z" transform=" scale(1, -1) translate(0, -512)" />
    </symbol>

    <symbol id="icon-mammals" viewBox="0 0 512 512">
        <path d="M437 142c-4 0-12 0-22 0l-30 0c-10 0-21 1-29 2-3 1-6 1-8 2 8 6 15 13 21 21 18 23 27 52 30 81 2-2 5-5 7-9 10-15 7-31 14-45 18-9 18 32 14 42-7 16-22 21-23 33 2 0 4-1 7-2 16-9 20-26 32-36 21 0 2 37-6 44-15 13-33 8-38 26 3 11 8 22 16 31 51 55 45 62-52 58l-1 0c4 20-1 44-16 57-3 2-5 3-7 3l0 0c-13-3-17-46-18-65-4-1-10-3-15-5-1 2-1 4-2 7-4 12-8 26-20 37-17 16-38 29-42 4-3-21 9-45 28-63-4-3-8-5-13-8-35-19-59-56-64-95-14-146-68-108-114-26-33 63-9 143 43 172 10 4 19 7 26 6 7-1 11-3 15-9 9-12 11-42-10-92l0-1-1 0 0-2c-1-4 0-8 3-10 3-3 7-4 11-3 4 1 6 4 7 7l1 2 0 1c22 52 23 87 9 108-14 16-26 21-43 18-103-16-110-155-76-214 9-21 54-104 114-75 16 8 28-4 40-11 2-7 6-15 13-24 11-9 27-15 36-18 22-9 44-24 64-26 21-2 38 6 14 24-17 12-42 16-60 23-8 3-15 7-21 10 12-1 24 0 35 4 4 1 9 2 12 4 1-1 2-2 2-2 4-3 10-7 17-8 13-4 30-4 39-4 14 0 28 1 42 0 5 0 18-2 28 0 6 1 10 2 11 4 1 0 2 1 2 1 0 1 0 2-1 4-3 9-11 14-21 17z m-78 224c12 0 22-10 22-23 0-12-10-22-22-22-13 0-23 10-23 22 0 13 10 23 23 23z m-35-202c-9 2-14 16-15 31l0 0c-2 22 1 48 7 56 8 11 18 1 28 3 9 1 17 15 27 12 29-9-10-111-47-102z" transform=" scale(1, -1) translate(0, -512)" />
    </symbol>

    <symbol id="icon-fishes" viewBox="0 0 512 512">
        <path d="M301 426c-2 0-4 0-7 0-36 0-67-3-100-20 39-23 44-58 42-86-2-28-9-22-20-58-50 37-103 21-165 24 78-85 152-49 158-198 76 111 10 135 46 122 58-22 96-23 129 5 14-11 37-34 43-65 33 77 8 98-1 121 7 13 14 28 21 44 49 123-36 102-146 111z m81-156c-47 15-72 43-81 90l15 3c8-41 29-65 70-78z m-2 79c-12 0-22 10-22 22 0 12 10 22 22 22 12 0 22-10 22-22 0-12-10-22-22-22z" transform=" scale(1, -1) translate(0, -512)" />
    </symbol>

    <symbol id="icon-molluscs" viewBox="0 0 512 512">
        <path d="M443 338c-6 0-12-4-15-9-7 2-14 3-20 4-9 1-19 1-28 0-12 7-20 32-26 43-1 1-2 3-3 4 6 3 10 9 10 16 0 10-8 18-18 18-10 0-18-8-18-18 0-8 5-14 12-17 0-4 1-11 0-14-2-9-5-15-9-20 3-4 5-8 8-13 34-63 6-144-62-181-38-21-80-23-116-11-8-7-17-12-25-18-5-3-11-7-13-12-3-7 16-4 18-4 13 2 25 7 37 11 13 3 27 4 39-5 8-6 19-9 29-11 21-4 45 0 64 11 18 10 32 25 42 43 6 10 11 21 15 33 3 11 5 22 6 33 3 22 7 44 17 63 6 9 13 18 22 23 6 3 11 5 17 7 2-7 9-13 17-13 10 0 18 9 18 19 0 9-8 18-18 18z m-173-179c64 34 90 110 58 169-22 40-64 62-108 61-21 0-43-5-63-16 35 3 68-12 85-43 23-43 4-97-42-122-39-21-84-15-111 12 2-6 4-12 7-17 32-59 110-79 174-44z m-75 57c42 23 59 72 39 109-14 25-40 39-68 39-14 0-29-3-43-10 14-3 27-11 34-24 13-25 2-57-25-72-18-9-39-9-55 0 1-5 3-10 6-14 20-38 70-51 112-28z m-68 51c23 12 32 38 21 58-7 13-21 20-36 20-8 0-16-2-24-6-4-2-8-5-11-8 2-1 4-3 6-7 2-5 1-12-1-18-2-5-6-10-11-14-3-1-5-2-7-3 0-3 1-5 3-8 10-20 37-26 60-14z m-52 45c1 3 1 5 0 7-1 2-2 3-5 4 0 0-1 0-1 0-3 0-6-1-10-3-3-3-6-7-7-10-2-3-2-6-1-8 1-1 2-3 5-3 3 0 7 0 11 3 4 3 6 6 8 10z" transform=" scale(1, -1) translate(0, -512)" />
    </symbol>

    <symbol id="icon-arachnids" viewBox="0 0 512 512">
        <path d="M425 254c-6 5-12 9-17 12-3 11-18 25-39 32-2 1-5 2-7 3 1 0 1 0 2 1 19 11 31 26 33 37 10 4 24 13 35 25 17 17 23 33 13 36-10 2-32-10-49-28-6-6-10-11-13-16-11 1-27-2-43-11-10-6-18-13-24-20 1 2 2 3 2 4 9 19 12 37 7 48 6 9 11 28 11 47 0 24-8 39-17 34-8-5-15-29-15-53 0-8 1-15 2-20-11-4-23-17-32-34-1-3-3-5-4-8-4 1-9 2-14 2-5 0-10-1-14-2-1 3-3 5-4 8-9 17-21 30-32 34 1 5 2 12 2 20 0 24-7 48-15 53-1 1-3 1-4 1l0 0c-7 1-13-14-13-35 0-19 5-37 11-47-5-11-3-29 7-48 0-1 0-1 1-2-6 6-14 13-23 18-16 9-32 12-43 11-3 5-7 10-13 16-17 18-38 30-48 28-10-3-5-19 12-36 11-12 25-21 35-25 2-11 14-26 33-37 1-1 1-1 2-1-2-1-5-2-7-3-21-7-36-21-39-32-5-3-11-7-17-12-18-15-31-36-30-46 2-10 18-6 36 10 11 9 20 20 26 29 9-2 22-1 35 3-2-3-4-6-6-9-11-16-15-34-12-45-2-4-4-9-6-14-7-23-7-48 0-56 7-7 18 5 25 28 3 11 5 23 5 32 10 5 21 15 30 29 7 11 11 22 12 32 6-8 6-16 7-25-15-14-25-33-25-55 0-40 32-74 72-74 40 0 72 34 72 74 0 22-10 41-25 55 0 10 2 16 7 24 1-9 5-20 12-31 9-14 20-24 30-29 0-9 2-21 5-32 7-23 18-35 25-28 7 8 7 33 0 56-2 5-4 10-6 14 3 11-1 29-12 45-2 3-4 6-6 9 13-4 26-5 35-3 6-9 15-20 26-29 18-16 34-20 36-10 1 10-12 31-30 46z" transform=" scale(1, -1) translate(0, -512)" />
    </symbol>

    <symbol id="icon-insects" viewBox="0 0 512 512">
        <path d="M404 423c-4 0-11-1-19-4-14-5-27-15-30-23-5-5-10-14-14-25-2-5-2-10-3-14 11 3 22 8 36 12 1 8 2 15 1 21 1 0 3 1 5 1 15 6 28 17 30 25 1 3-2 6-6 7z m-298-1c-4 0-7-3-6-6 2-8 15-19 31-25 1 0 3-1 5-1-2-6-1-13 0-20 14-5 25-9 36-13 0 5-1 9-3 14-3 11-9 20-14 25-2 8-16 18-30 23-8 3-14 4-19 3z m149-3c-29 0-52-24-52-52 0-10 3-19 7-26 11-7 21-15 29-27l3-3-2-4c-10-20-10-16-8-36l0-2-1-3c-5-8-15-15-26-23-11-7-25-13-38-19 0 0-1 0-2 0-2-5-3-9-3-12-5-4-10-11-15-18-5-10-8-20-9-28-4-7-3-25 2-42 5-18 13-27 17-21 5 6 4 25-1 43-1 2-1 3-2 5 7 3 15 11 21 22 4 7 7 15 8 21 5 2 9 4 14 8 11 8 20 21 24 32 2-2 5-4 8-6-21-11-35-36-35-65 0-40 27-72 61-72 34 0 61 32 61 72 0 29-14 54-35 65 3 2 6 4 8 6 4-11 13-24 24-32 5-4 10-6 14-8 1-6 4-14 8-21 6-11 14-19 21-22-1-2-1-3-2-5-5-18-5-37-1-43 4-6 12 3 17 21 5 17 6 35 2 42-1 8-4 18-9 28-5 7-10 14-15 18 0 4-1 8-3 12 0 0 0 0 0 0-13 6-27 12-38 19-11 8-21 15-26 23l-1 3 0 2c2 20 2 16-8 36l-2 4 3 3c7 11 16 19 26 25 5 8 8 18 8 28 0 28-23 52-52 52z m-187-49c-6 0-10-2-12-4-3-1-4-4-5-7-2-8 1-18 11-29 9-11 27-23 53-32 8-3 23-6 39-7l32-2-30-12c-2-1-4-2-7-3-16-7-23-15-27-22-3-8-3-15-2-23 0 0 0 0 1 0 1 0 5-1 9 0 8 1 20 4 32 9 12 5 25 11 35 18 10 6 19 13 22 18-1 13 1 21 7 33-10 13-21 21-36 28-16 7-36 13-63 23-27 9-46 13-59 12z m376 0c-13 1-32-3-59-12-27-10-47-16-63-23-15-7-26-15-36-28 6-12 8-20 7-33 3-5 12-12 22-18 10-7 23-13 35-18 12-5 24-8 32-9 4-1 8 0 9 0 1 0 1 0 1 0 1 8 1 15-2 23-4 7-11 15-27 22-3 1-5 2-7 3l-30 12 32 2c16 1 31 4 39 7 26 9 44 21 53 32 10 11 13 21 11 29-1 3-2 6-5 7-2 2-6 4-12 4z m-349-125c-11 1-21-2-25-6-4-6 5-13 20-17 7-1 13-1 19-1-1 2-2 3-3 5l0 0 0 1c-1 5-1 11-1 17-3 1-7 1-10 1z m320 0c-3 0-6 0-8-1 0-6 0-12-1-18l0 0 0 0c-1-2-2-3-3-5 5 0 11 0 17 1 16 4 25 11 20 17-3 4-13 7-25 6z" transform=" scale(1, -1) translate(0, -512)" />
    </symbol>

    <symbol id="icon-plants" viewBox="0 0 512 512">
        <path d="M335 406c-41-3-63-4-118-36-40-22-66-63-72-106-6-29-14-57-24-84-13-29-47-39-69-61-2-2-1-7 1-7 24 0 52 10 75 21 23 10 36-14 55-18 26-7 55-12 81-3 28 6 52 23 69 45 22 28 33 63 35 98 3 35 5 64 24 86 19 22 30 34 69 51 2 14-85 17-126 14z m-32-133c16 5 32 9 38 22l10-5c-8-18-28-23-45-28-17-4-29-8-33-17-1-4-2-8-4-13 0 0 0 0 0 0l0 0c-3-7-6-13-11-20-5-6-10-11-17-17 10 0 18-1 27-3 22-4 39-7 55 16l10-7c-21-28-44-24-67-20-15 3-30 5-46 0-13-7-27-13-44-19l-3 11c10 3 19 7 27 11l0 0c1 0 2 1 3 1 18 14 11 28-2 52-12 21-27 47-6 71l9-7c-16-19-5-38 7-58 6-12 13-23 14-35 0-4 0-8-1-11 19 12 29 25 34 39 10 41-4 59-15 74-11 14-21 28 0 53l9-7c-15-18-10-25 0-39 6-8 13-17 17-30 7 27 22 55 86 77l4-11c-33-11-54-24-66-41-11-14-13-29-16-46 0 0 0-1 0-2 7 4 17 7 26 9z" transform=" scale(1, -1) translate(0, -512)" />
    </symbol>

    <symbol id="icon-fungi" viewBox="0 0 512 512">
        <path d="M338 419c4-4 6-7 5-11-2-8-18-10-36-6-18 5-31 15-29 22 1 3 4 5 8 7-9 1-19 1-29 1-18 0-35-1-51-4 9-1 15-4 17-9 3-10-13-24-37-32-23-8-45-7-49 3-1 5 1 11 7 16-41-22-68-56-68-95 0-20 5-49 21-57 16-8 90 23 159 23 69 0 141-35 158-24 17 11 22 36 22 57 0 47-40 89-98 109z m-206-89c-6-10-15-14-20-8-5 5-4 18 2 28 6 10 15 14 20 8 6-5 5-18-2-28z m123 12c-13 0-24 9-24 19 0 10 11 18 24 18 14 0 25-8 25-18 0-10-11-19-25-19z m146-5c-4-6-17-1-29 10-11 12-17 25-13 31 4 6 17 1 28-10 12-12 18-25 14-31z m-145-78c-30 1-62-6-90-12-5-25-7-49-7-68 0-130 194-130 194 0 0 18-2 42-6 66-28 7-61 14-91 14z" transform=" scale(1, -1) translate(0, -512)" />
    </symbol>

    <symbol id="icon-location" viewBox="0 0 512 512">
        <path d="M256 336c-44 0-80-36-80-80 0-44 36-80 80-80 44 0 80 36 80 80 0 44-36 80-80 80z m191-59c-10 89-81 160-170 170l0 33-42 0 0-33c-89-10-160-81-170-170l-33 0 0-42 33 0c10-89 81-160 170-170l0-33 42 0 0 33c89 10 160 81 170 170l33 0 0 42z m-191-170c-82 0-149 67-149 149 0 82 67 149 149 149 82 0 149-67 149-149 0-82-67-149-149-149z" transform=" scale(1, -1) translate(0, -512)" />
    </symbol>

    <symbol id="icon-treeview" viewBox="0 0 512 512">
        <path d="M102 273l137 0 0 68-102 0 0 137 238 0 0-137-102 0 0-68 137 0 0-102 102 0 0-137-239 0 0 137 102 0 0 68-238 0 0-68 102 0 0-137-239 0 0 137 102 0z" transform=" scale(1, -1) translate(0, -512)" />
    </symbol>

    <symbol id="icon-dna" viewBox="0 0 512 512">
        <path d="M334 178c30 29 43 71 39 121-13 2-25 4-38 8-1 0-2 0-2 0 1-11 2-23 1-33l-41 40c-9 1-18 1-27 0l64-65c-4-17-12-32-24-43-11-12-26-20-44-24l-64 64c-1-9-1-18 0-28l40-40c-20-1-42 2-66 8-72 20-133 9-172-30l28-27c28 28 76 35 134 19 72-19 133-9 172 30z m-17 213c12-2 25-5 38-8 1 0 2-1 2-1-2 15-2 29-1 41l49-48c9 0 17 1 25 2l-69 69c5 15 12 28 22 38l-27 28c-30-29-43-71-39-121z m-162-261c2-15 2-29 1-41l-49 48c-9 0-18-1-25-2l69-70c-5-14-12-27-22-37l27-28c30 29 43 71 39 121-12 2-25 5-38 8-1 0-2 1-2 1z m195 234c-72 19-133 9-172-30-30-29-43-71-39-121 13-2 25-4 38-8 1 0 2 0 2 0-5 39 2 71 20 94l86-86c3 2 5 4 8 6 2 3 4 5 6 8l-86 86c29 23 73 27 127 13 72-20 133-9 172 30l-28 27c-28-28-76-35-134-19z" transform=" scale(1, -1) translate(0, -512)" />
    </symbol>

</svg>

