<svg xmlns="http://www.w3.org/2000/svg" style="display: none;">


    <symbol id="icon-help" viewBox="0 0 24 24">
        <path d="M12 2C6.48 2 2 6.48 2 12s4.48 10 10 10 10-4.48 10-10S17.52 2 12 2zm1 17h-2v-2h2v2zm2.07-7.75l-.9.92C13.45 12.9 13 13.5 13 15h-2v-.5c0-1.1.45-2.1 1.17-2.83l1.24-1.26c.37-.36.59-.86.59-1.41 0-1.1-.9-2-2-2s-2 .9-2 2H8c0-2.21 1.79-4 4-4s4 1.79 4 4c0 .88-.36 1.68-.93 2.25z"/>
    </symbol>

    <symbol id="icon-share" viewBox="0 0 24 24">
         <path d="M18 16.08c-.76 0-1.44.3-1.96.77L8.91 12.7c.05-.23.09-.46.09-.7s-.04-.47-.09-.7l7.05-4.11c.54.5 1.25.81 2.04.81 1.66 0 3-1.34 3-3s-1.34-3-3-3-3 1.34-3 3c0 .24.04.47.09.7L8.04 9.81C7.5 9.31 6.79 9 6 9c-1.66 0-3 1.34-3 3s1.34 3 3 3c.79 0 1.5-.31 2.04-.81l7.12 4.16c-.05.21-.08.43-.08.65 0 1.61 1.31 2.92 2.92 2.92 1.61 0 2.92-1.31 2.92-2.92s-1.31-2.92-2.92-2.92z"/>
    </symbol>

    <symbol id="icon-drag" viewBox="0 0 24 24">
        <path d="M9 11.24V7.5C9 6.12 10.12 5 11.5 5S14 6.12 14 7.5v3.74c1.21-.81 2-2.18 2-3.74C16 5.01 13.99 3 11.5 3S7 5.01 7 7.5c0 1.56.79 2.93 2 3.74zm9.84 4.63l-4.54-2.26c-.17-.07-.35-.11-.54-.11H13v-6c0-.83-.67-1.5-1.5-1.5S10 6.67 10 7.5v10.74l-3.43-.72c-.08-.01-.15-.03-.23-.03-.31 0-.59.13-.79.33l-.79.8 4.94 4.94c.27.27.65.44 1.06.44h6.79c.75 0 1.33-.55 1.44-1.28l.75-5.27c.01-.07.02-.14.02-.2 0-.62-.38-1.16-.91-1.38z"/>
    </symbol>

    <symbol id="icon-left" viewBox="0 0 24 24">
        <path d="M12 4l1.41 1.41L7.83 11H20v2H7.83l5.58 5.59L12 20l-8-8 8-8z"/>
    </symbol>

    <symbol id="icon-down" viewBox="0 0 24 24">
        <path d="M20 12l-1.41-1.41L13 16.17V4h-2v12.17l-5.58-5.59L4 12l8 8 8-8z"/>
    </symbol>

    <symbol id="icon-right" viewBox="0 0 24 24">
        <path d="M12 4l-1.41 1.41L16.17 11H4v2h12.17l-5.58 5.59L12 20l8-8-8-8z"/>
    </symbol>

    <symbol id="icon-up" viewBox="0 0 24 24">
        <path d="M4 12l1.41 1.41L11 7.83V20h2V7.83l5.58 5.59L20 12l-8-8-8 8z"/>
    </symbol>

    <symbol id="icon-heart" viewBox="0 0 24 24">
        <path d="M12 21.35l-1.45-1.32C5.4 15.36 2 12.28 2 8.5 2 5.42 4.42 3 7.5 3c1.74 0 3.41.81 4.5 2.09C13.09 3.81 14.76 3 16.5 3 19.58 3 22 5.42 22 8.5c0 3.78-3.4 6.86-8.55 11.54L12 21.35z"/>
    </symbol>
    <symbol id="icon-info" viewBox="0 0 24 24">
        <path d="M12 2C6.48 2 2 6.48 2 12s4.48 10 10 10 10-4.48 10-10S17.52 2 12 2zm1 15h-2v-6h2v6zm0-8h-2V7h2v2z"/>
    </symbol>

    <symbol id="icon-search" viewBox="0 0 24 24">
        <path d="M15.5 14h-.79l-.28-.27C15.41 12.59 16 11.11 16 9.5 16 5.91 13.09 3 9.5 3S3 5.91 3 9.5 5.91 16 9.5 16c1.61 0 3.09-.59 4.23-1.57l.27.28v.79l5 4.99L20.49 19l-4.99-5zm-6 0C7.01 14 5 11.99 5 9.5S7.01 5 9.5 5 14 7.01 14 9.5 11.99 14 9.5 14z"/>
    </symbol>

    <symbol id="icon-user" viewBox="0 0 24 24">
        <path d="M12 2C6.48 2 2 6.48 2 12s4.48 10 10 10 10-4.48 10-10S17.52 2 12 2zm0 3c1.66 0 3 1.34 3 3s-1.34 3-3 3-3-1.34-3-3 1.34-3 3-3zm0 14.2c-2.5 0-4.71-1.28-6-3.22.03-1.99 4-3.08 6-3.08 1.99 0 5.97 1.09 6 3.08-1.29 1.94-3.5 3.22-6 3.22z"/>
    </symbol>

    <symbol id="icon-menu" viewBox="0 0 24 24">
        <path d="M3 18h18v-2H3v2zm0-5h18v-2H3v2zm0-7v2h18V6H3z"/>
    </symbol>

    <symbol id="icon-trash" viewBox="0 0 24 24">
        <path d="M6 19c0 1.1.9 2 2 2h8c1.1 0 2-.9 2-2V7H6v12zM19 4h-3.5l-1-1h-5l-1 1H5v2h14V4z"/>
    </symbol>

    <symbol id="icon-thumb-up" viewBox="0 0 24 24">
        <path d="M1 21h4V9H1v12zm22-11c0-1.1-.9-2-2-2h-6.31l.95-4.57.03-.32c0-.41-.17-.79-.44-1.06L14.17 1 7.59 7.59C7.22 7.95 7 8.45 7 9v10c0 1.1.9 2 2 2h9c.83 0 1.54-.5 1.84-1.22l3.02-7.05c.09-.23.14-.47.14-.73v-2z"/>
    </symbol>

    <symbol id="icon-thumb-down" viewBox="0 0 24 24">
        <path d="M15 3H6c-.83 0-1.54.5-1.84 1.22l-3.02 7.05c-.09.23-.14.47-.14.73v2c0 1.1.9 2 2 2h6.31l-.95 4.57-.03.32c0 .41.17.79.44 1.06L9.83 23l6.59-6.59c.36-.36.58-.86.58-1.41V5c0-1.1-.9-2-2-2zm4 0v12h4V3h-4z"/>
    </symbol>
    <symbol id="icon-settings" viewBox="0 0 24 24">
        <path d="M19.14 12.94c.04-.3.06-.61.06-.94 0-.32-.02-.64-.07-.94l2.03-1.58c.18-.14.23-.41.12-.61l-1.92-3.32c-.12-.22-.37-.29-.59-.22l-2.39.96c-.5-.38-1.03-.7-1.62-.94l-.36-2.54c-.04-.24-.24-.41-.48-.41h-3.84c-.24 0-.43.17-.47.41l-.36 2.54c-.59.24-1.13.57-1.62.94l-2.39-.96c-.22-.08-.47 0-.59.22L2.74 8.87c-.12.21-.08.47.12.61l2.03 1.58c-.05.3-.09.63-.09.94s.02.64.07.94l-2.03 1.58c-.18.14-.23.41-.12.61l1.92 3.32c.12.22.37.29.59.22l2.39-.96c.5.38 1.03.7 1.62.94l.36 2.54c.05.24.24.41.48.41h3.84c.24 0 .44-.17.47-.41l.36-2.54c.59-.24 1.13-.56 1.62-.94l2.39.96c.22.08.47 0 .59-.22l1.92-3.32c.12-.22.07-.47-.12-.61l-2.01-1.58zM12 15.6c-1.98 0-3.6-1.62-3.6-3.6s1.62-3.6 3.6-3.6 3.6 1.62 3.6 3.6-1.62 3.6-3.6 3.6z"/>
    </symbol>

    <symbol id="icon-report" viewBox="0 0 24 24">
        <path d="M14.4 6L14 4H5v17h2v-7h5.6l.4 2h7V6z"/>
    </symbol>
    <symbol id="icon-keyboard" viewBox="0 0 24 24">
        <path d="M20 5H4c-1.1 0-1.99.9-1.99 2L2 17c0 1.1.9 2 2 2h16c1.1 0 2-.9 2-2V7c0-1.1-.9-2-2-2zm-9 3h2v2h-2V8zm0 3h2v2h-2v-2zM8 8h2v2H8V8zm0 3h2v2H8v-2zm-1 2H5v-2h2v2zm0-3H5V8h2v2zm9 7H8v-2h8v2zm0-4h-2v-2h2v2zm0-3h-2V8h2v2zm3 3h-2v-2h2v2zm0-3h-2V8h2v2z"/>
    </symbol>
    <symbol id="icon-random" viewBox="0 0 24 24">
        <path d="M10.59 9.17L5.41 4 4 5.41l5.17 5.17 1.42-1.41zM14.5 4l2.04 2.04L4 18.59 5.41 20 17.96 7.46 20 9.5V4h-5.5zm.33 9.41l-1.41 1.41 3.13 3.13L14.5 20H20v-5.5l-2.04 2.04-3.13-3.13z"/>
    </symbol>

    <symbol id="icon-list" viewBox="0 0 24 24">
        <path d="M3 13h2v-2H3v2zm0 4h2v-2H3v2zm0-8h2V7H3v2zm4 4h14v-2H7v2zm0 4h14v-2H7v2zM7 7v2h14V7H7z"/>
    </symbol>

    <symbol id="icon-plus" viewBox="0 0 24 24">
        <path d="M19 13h-6v6h-2v-6H5v-2h6V5h2v6h6v2z"/>
    </symbol>

    <symbol id="icon-stats" viewBox="0 0 24 24">
        <path d="M3.5 18.49l6-6.01 4 4L22 6.92l-1.41-1.41-7.09 7.97-4-4L2 16.99z"/>
    </symbol>
    <symbol id="icon-graph" viewBox="0 0 24 24">
        <path d="M12 2v4m0 0v12m0-12h-4v3m4-3h4v3m-8 5h4m4-5v5h-4m-4 4h4m4-4v4h-4m-8-9v5h4m-4 4v3"/>
    </symbol>
    <symbol id="icon-camera" viewBox="0 0 24 24">
        <path d="M9 3L7.17 5H4c-1.1 0-2 .9-2 2v12c0 1.1.9 2 2 2h16c1.1 0 2-.9 2-2V7c0-1.1-.9-2-2-2h-3.17L15 3H9zm3 15c-2.76 0-5-2.24-5-5s2.24-5 5-5 5 2.24 5 5-2.24 5-5 5z"/>
        <circle cx="12" cy="13" r="3"/>
    </symbol>
    <symbol id="icon-microscope" viewBox="0 0 24 24">
        <path d="M20 15.31L23.31 12 20 8.69V4h-4.69L12 .69 8.69 4H4v4.69L.69 12 4 15.31V20h4.69L12 23.31 15.31 20H20v-4.69zM12 18c-3.31 0-6-2.69-6-6s2.69-6 6-6 6 2.69 6 6-2.69 6-6 6z"/>
    </symbol>
   <symbol id="icon-network" viewBox="0 0 24 24">
    <path d="M3.9 12c0-1.71 1.39-3.1 3.1-3.1h4V7H7c-2.76 0-5 2.24-5 5s2.24 5 5 5h4v-1.9H7c-1.71 0-3.1-1.39-3.1-3.1zM8 13h8v-2H8v2zm9-6h-4v1.9h4c1.71 0 3.1 1.39 3.1 3.1s-1.39 3.1-3.1 3.1h-4V17h4c2.76 0 5-2.24 5-5s-2.24-5-5-5z"/>
    </symbol> 
    <symbol id="icon-close" viewBox="0 0 24 24">
        <path d="M19 6.41L17.59 5 12 10.59 6.41 5 5 6.41 10.59 12 5 17.59 6.41 19 12 13.41 17.59 19 19 17.59 13.41 12z"/>
    </symbol>
    <symbol id="icon-star" viewBox="0 0 24 24">
        <path d="M12 17.27L18.18 21l-1.64-7.03L22 9.24l-7.19-.61L12 2 9.19 8.63 2 9.24l5.46 4.73L5.82 21z"/>
    </symbol>
    <symbol id="icon-phylogeny" viewBox="0 0 24 24">
        <path
     id="path1"
     fill="none"
     stroke="#000000"
     stroke-width="0.283163"
     d="M 10.683166,3.9949918 C 10.059392,4.174501 9.685993,4.8320653 9.7556109,5.4620171 c -0.034552,0.6805423 -0.062302,1.5645151 0.6635721,1.9095523 0.247761,0.3203329 1.035431,-0.041132 1.013263,0.3944525 0,0.6130199 0,1.2260399 0,1.8390599 -0.691006,-0.0777 -1.485084,0.2587628 -1.6388493,0.9982402 -0.028333,0.694221 -0.1925094,1.491963 0.2265353,2.102502 0.219037,0.433657 0.947628,0.499724 1.221367,0.548464 -1.160187,0.647999 -2.3510853,1.246966 -3.4877,1.932557 0.058266,0.248974 -0.7071864,-0.0066 -0.9204995,0.157246 -0.6605844,0.116135 -0.9620543,0.80663 -0.9569258,1.416143 -0.02062,0.724747 -0.1246214,1.636659 0.5135673,2.142064 0.6591401,0.342412 1.4435381,0.226596 2.1606241,0.211437 0.7257093,0.02844 1.2008341,-0.667794 1.1925375,-1.336578 0.019737,-0.715748 0.1391919,-1.578304 -0.40182,-2.141889 -0.3329534,-0.334717 -0.8252154,-0.346062 -1.2670159,-0.358177 1.1623286,-0.634889 2.3246583,-1.269775 3.4869893,-1.90466 1.162182,0.63473 2.324279,1.269617 3.48629,1.90466 -0.571178,-0.01079 -1.241594,0.101461 -1.509402,0.67937 -0.267023,0.650834 -0.153853,1.398096 -0.14373,2.087226 0.0896,0.701669 0.794138,1.178657 1.481014,1.095763 0.698613,-0.01728 1.570529,0.167388 2.062343,-0.466569 0.4835,-0.592954 0.258434,-1.418525 0.300055,-2.119702 0.03945,-0.818394 -0.79436,-1.348611 -1.546034,-1.263448 -0.472382,0.109191 -0.395148,-0.295094 -0.861728,-0.427849 -0.994464,-0.541655 -1.988681,-1.083765 -2.982758,-1.626131 0.708586,0.04167 1.474305,-0.432468 1.51007,-1.192872 -0.01588,-0.702588 0.180332,-1.570774 -0.421723,-2.0944703 -0.268085,-0.4437303 -1.076821,-0.1665565 -1.245267,-0.4596789 0,-0.641676 0,-1.283352 0,-1.925028 0.742661,0.081522 1.62014,-0.3552936 1.665931,-1.1764442 C 13.344686,5.6851305 13.537228,4.8225462 12.94731,4.2913048 12.403188,3.7763611 11.584308,3.9765824 10.90853,3.9621496 l -0.09521,0.00922 -0.130326,0.023635 m 1.6835,0.24629 c 0.473711,0.1474217 0.819293,0.6438648 0.73254,1.1393401 -0.02214,0.3910767 0.04477,0.8023027 -0.0334,1.1806995 -0.17644,0.6149399 -0.852462,0.7883719 -1.420105,0.7430604 -0.577254,0.026682 -1.342649,-0.020798 -1.5561,-0.6744287 -0.1380598,-0.3215914 -0.03345,-0.697757 -0.06569,-1.0431473 4.18e-4,-0.3356053 -0.054137,-0.6949203 0.200208,-0.9633542 0.472147,-0.6396643 1.356707,-0.366798 2.032495,-0.3980966 l 0.110076,0.016017 m -0.10535,5.6484 c 0.981177,0.1941782 0.900252,1.3414012 0.8258,2.1033472 -0.0019,0.7756 -0.874751,1.066073 -1.524807,0.983342 -0.604798,0.04906 -1.458792,-0.127988 -1.51091,-0.869704 -0.02376,-0.637344 -0.1818221,-1.412898 0.264222,-1.942454 0.522955,-0.4258309 1.318046,-0.2980889 1.945675,-0.2746312 M 8.7776367,15.595991 c 0.7273008,0.169136 0.7133091,1.027998 0.7119773,1.622687 0.013263,0.580212 0.020444,1.359179 -0.6405571,1.590859 -0.2974037,0.129966 -0.650531,0.02594 -0.9709384,0.05931 -0.3479961,-0.02134 -0.7152146,0.04324 -1.0509123,-0.03306 C 6.4108503,18.6544 6.0675085,18.213778 6.1481167,17.744555 c 0.011189,-0.479855 -0.0223,-0.969724 0.016561,-1.443375 0.1890721,-0.604287 0.8331141,-0.842552 1.4196991,-0.753973 0.3975404,0.0035 0.7992707,-0.01112 1.1932599,0.04874 m 7.4644493,-0.0105 c 0.474503,0.146101 0.819398,0.643282 0.73254,1.13864 -0.01119,0.466927 0.02232,0.943872 -0.01656,1.404591 -0.167216,0.435193 -0.589865,0.830005 -1.081848,0.743384 -0.55682,-0.02544 -1.146368,0.102442 -1.673832,-0.09954 -0.711705,-0.360332 -0.554151,-1.225327 -0.566204,-1.884081 -0.157651,-0.830594 0.597159,-1.513764 1.407506,-1.339562 0.399139,-0.0011 0.80219,-0.01947 1.1984,0.03621"
     style="fill:#000000" />
    </symbol>

</svg>

