<?xml version="1.0" encoding="UTF-8" standalone="no"?>
<!-- Created with Inkscape (http://www.inkscape.org/) -->

<svg
   width="62.441662mm"
   height="55.033333mm"
   viewBox="0 0 62.441662 55.033333"
   version="1.1"
   id="svg1"
   inkscape:version="1.3.2 (091e20e, 2023-11-25, custom)"
   sodipodi:docname="inat.svg"
   xmlns:inkscape="http://www.inkscape.org/namespaces/inkscape"
   xmlns:sodipodi="http://sodipodi.sourceforge.net/DTD/sodipodi-0.dtd"
   xmlns="http://www.w3.org/2000/svg"
   xmlns:svg="http://www.w3.org/2000/svg">
  <sodipodi:namedview
     id="namedview1"
     pagecolor="#ffffff"
     bordercolor="#000000"
     borderopacity="0.25"
     inkscape:showpageshadow="2"
     inkscape:pageopacity="0.0"
     inkscape:pagecheckerboard="0"
     inkscape:deskcolor="#d1d1d1"
     inkscape:document-units="mm"
     inkscape:zoom="4.5932379"
     inkscape:cx="146.73745"
     inkscape:cy="97.861249"
     inkscape:window-width="2560"
     inkscape:window-height="1566"
     inkscape:window-x="-11"
     inkscape:window-y="-11"
     inkscape:window-maximized="1"
     inkscape:current-layer="layer1" />
  <defs
     id="defs1" />
  <g
     inkscape:label="Layer 1"
     inkscape:groupmode="layer"
     id="layer1"
     transform="translate(-75.141666,-76.729166)">
    <path
       d="m 77.100161,84.853783 c 13.017047,1.193997 26.155069,5.83663 35.535089,15.233277 1.27124,1.82732 3.89085,3.83091 4.99081,0.603 2.18972,-3.979649 6.53128,-6.706464 11.13154,-6.455528 1.95066,0.214465 4.84849,-0.04978 6.11534,1.307302 -3.43057,1.798474 -4.356,5.812596 -5.05517,9.298946 -0.9221,7.5903 -5.17769,14.70189 -11.58043,18.91871 -7.34503,4.99603 -17.15311,6.04713 -25.412418,2.80181 6.738948,-0.624 13.033228,-4.57424 16.681988,-10.24371 0.38271,-2.72939 -4.16802,-0.6299 -5.85279,-1.10308 -5.046844,0.18653 -9.185403,-3.27682 -12.246435,-6.92338 -0.875964,-0.98636 -2.429052,-2.30337 -0.112304,-2.2312 1.527414,-0.46617 5.470022,-0.57834 5.500164,-0.84771 -5.163101,-1.35126 -10.46966,-3.81893 -13.523656,-8.38445 2.032598,-0.990862 6.611307,-0.09025 7.199082,-0.62677 -4.327634,-2.695777 -9.173663,-5.003487 -12.366779,-9.110747 -0.461323,-0.67922 -0.818214,-1.434677 -1.004031,-2.23647 z m 21.653916,-5.7053 c 5.922343,2.621515 11.846993,6.301494 14.870053,12.267302 1.36759,2.690637 2.91906,5.703146 2.43888,8.785165 -1.99216,-0.679949 -3.6789,-3.499366 -5.76549,-4.74472 -2.30753,-2.085181 -5.36141,-3.286296 -7.33278,-5.727141 -2.25035,-3.109836 -3.361189,-6.883572 -4.210663,-10.580606 z m 27.964503,17.06155 c -3.17981,0.525459 0.28238,4.760777 1.52758,1.85282 0.35133,-0.952125 -0.54735,-1.977973 -1.52758,-1.85282 z"
       id="path4"
       fill="#ffffff"
       style="fill:#363636;fill-opacity:1;stroke-width:0.240938" />
  </g>
</svg>
