<svg xmlns="http://www.w3.org/2000/svg" style="display: none;">


    <symbol id="icon-help" viewBox="0 0 24 24">
        <path d="M12 2C6.48 2 2 6.48 2 12s4.48 10 10 10 10-4.48 10-10S17.52 2 12 2zm1 17h-2v-2h2v2zm2.07-7.75l-.9.92C13.45 12.9 13 13.5 13 15h-2v-.5c0-1.1.45-2.1 1.17-2.83l1.24-1.26c.37-.36.59-.86.59-1.41 0-1.1-.9-2-2-2s-2 .9-2 2H8c0-2.21 1.79-4 4-4s4 1.79 4 4c0 .88-.36 1.68-.93 2.25z"/>
    </symbol>

    <symbol id="icon-drag" viewBox="0 0 24 24">
        <path d="M9 11.24V7.5C9 6.12 10.12 5 11.5 5S14 6.12 14 7.5v3.74c1.21-.81 2-2.18 2-3.74C16 5.01 13.99 3 11.5 3S7 5.01 7 7.5c0 1.56.79 2.93 2 3.74zm9.84 4.63l-4.54-2.26c-.17-.07-.35-.11-.54-.11H13v-6c0-.83-.67-1.5-1.5-1.5S10 6.67 10 7.5v10.74l-3.43-.72c-.08-.01-.15-.03-.23-.03-.31 0-.59.13-.79.33l-.79.8 4.94 4.94c.27.27.65.44 1.06.44h6.79c.75 0 1.33-.55 1.44-1.28l.75-5.27c.01-.07.02-.14.02-.2 0-.62-.38-1.16-.91-1.38z"/>
    </symbol>

    <symbol id="icon-left" viewBox="0 0 24 24">
        <path d="M12 4l1.41 1.41L7.83 11H20v2H7.83l5.58 5.59L12 20l-8-8 8-8z"/>
    </symbol>

    <symbol id="icon-down" viewBox="0 0 24 24">
        <path d="M20 12l-1.41-1.41L13 16.17V4h-2v12.17l-5.58-5.59L4 12l8 8 8-8z"/>
    </symbol>

</svg>
