<?xml version="1.0" encoding="UTF-8" standalone="no"?>
<!--
*************Map created by Simplemaps.com********************		
*************Attribution is highly appreciated!***************
*************http://simplemaps.com****************************

The MIT License (MIT)

Copyright (c) 2020 Pareto Softare, LLC DBA Simplemaps.com

Permission is hereby granted, free of charge, to any person obtaining a copy
of this software and associated documentation files (the "Software"), to deal
in the Software without restriction, including without limitation the rights
to use, copy, modify, merge, publish, distribute, sublicense, and/or sell
copies of the Software, and to permit persons to whom the Software is
furnished to do so, subject to the following conditions:

The above copyright notice and this permission notice shall be included in
all copies or substantial portions of the Software.

THE SOFTWARE IS PROVIDED "AS IS", WITHOUT WARRANTY OF ANY KIND, EXPRESS OR
IMPLIED, INCLUDING BUT NOT LIMITED TO THE WARRANTIES OF MERCHANTABILITY,
FITNESS FOR A PARTICULAR PURPOSE AND NONINFRINGEMENT. IN NO EVENT SHALL THE
AUTHORS OR COPYRIGHT HOLDERS BE LIABLE FOR ANY CLAIM, DAMAGES OR OTHER
LIABILITY, WHETHER IN AN ACTION OF CONTRACT, TORT OR OTHERWISE, ARISING FROM,
OUT OF OR IN CONNECTION WITH THE SOFTWARE OR THE USE OR OTHER DEALINGS IN
THE SOFTWARE.

-->

<svg
   baseprofile="tiny"
   fill="#ececec"
   height="512.1181"
   stroke="#000000"
   stroke-linecap="round"
   stroke-linejoin="round"
   stroke-width="0.2"
   version="1.2"
   viewbox="0 0 2000 857"
   width="1065.499"
   id="svg301"
   sodipodi:docname="world.svg"
   viewBox="0 0 1775.8327 853.5303"
   inkscape:version="1.3.2 (091e20e, 2023-11-25, custom)"
   xmlns:inkscape="http://www.inkscape.org/namespaces/inkscape"
   xmlns:sodipodi="http://sodipodi.sourceforge.net/DTD/sodipodi-0.dtd"
   xmlns="http://www.w3.org/2000/svg"
   xmlns:svg="http://www.w3.org/2000/svg">
  <defs
     id="defs301" />
  <sodipodi:namedview
     id="namedview301"
     pagecolor="#ffffff"
     bordercolor="#000000"
     borderopacity="0.25"
     inkscape:showpageshadow="2"
     inkscape:pageopacity="0.0"
     inkscape:pagecheckerboard="0"
     inkscape:deskcolor="#d1d1d1"
     showgrid="false"
     inkscape:zoom="1.4071425"
     inkscape:cx="579.89863"
     inkscape:cy="202.18279"
     inkscape:window-width="2560"
     inkscape:window-height="1566"
     inkscape:window-x="-11"
     inkscape:window-y="-11"
     inkscape:window-maximized="1"
     inkscape:current-layer="svg301" />
  <path
     d="m 860.55596,248.14355 -5.6992,2.5 -3.5996,0.40039 -2.2012,-1.5 -5.6992,0.0996 -4.9004,2.5 -2.6992,-0.90039 -8.8008,0.5 -8.99999,1.10156 -5.09961,2 -3.30078,2.59961 -5.79883,1.09961 -5.09961,3.5 h -2.40039 l -5.5,-1.40039 -5.09961,0.40039 -3.10156,-2.69922 -3.89844,-0.10156 -1.80078,4 -3.69922,6.60156 -4.10156,2.69922 -5.39844,2.90039 -3.60156,4.29883 -0.89844,3.40039 -2.20117,5.59961 1.20117,7.90039 -4.70117,5.40039 -2.79883,1.69922 -4.40039,4.40039 -5.09961,0.70117 -2.90039,2.5 -0.0996,0.0996 -3.60156,6.5 -3.79883,2.40039 -2.09961,3.89844 -0.20117,3.5 -1.59961,3.70117 -1.90039,1 -3.19922,4.09961 -2,4.5 0.29883,2.19922 -1.89844,3.40039 -2.20117,1.70117 -0.29883,3 -0.30079,2.69924 2.80078,2.80078 1.39844,3 -0.59961,3.19922 0.59961,3.19922 0.40039,6.40039 -0.79883,6 -1.60156,3.20117 0.40039,3.39844 -1.40039,3.30078 -2.79883,4.5 -2.5,1.30078 2.69922,2.19922 2.30078,5 -0.80078,2.90039 0.80078,4.90039 0.40039,1.39844 1.69922,1.30078 -0.0996,1 1.29883,1.80078 2.40039,0.5 2.90039,2.59961 1.69922,1.09961 0.80078,1.40039 0.59961,2.79883 1.40039,1.30078 1.40039,0.90039 2.19922,2.5 2.40039,3.79883 0.69922,4.70117 0.90039,2.40039 3,3.39844 4,2.60156 1.5,0.5 3.80078,4.09961 4.79883,3.5 5.20117,4.90039 5.79883,3.09961 1.5,-0.0996 1.10156,0.19922 5.59961,-2.40039 3.90039,-1.79883 6.69921,-1.20118 h 3.69922 l 3.90039,1.20117 h 2.59961 l 5,1.79883 5.10156,-1.90039 3.19922,-2.19922 8.90039,-3.69922 4.5,-1.40039 4.69921,-0.80078 h 5 4.2012 l 4,4.20117 1.8984,4.59961 3.1016,4.09961 4.5,0.0996 2.1992,-1.40039 2.0996,0.30078 5.9004,-2.30078 -0.1,1.80078 1.5,0.90039 1.0996,2.90039 2.5996,1 2.3008,4.29883 -0.9004,5.09961 -1.9004,7.20117 1.0996,0.90039 -1.1992,4.79883 -1.3008,4.70117 -1.2988,2 -0.2012,2.19922 3.5,6.59961 3.7012,5.30078 5.7988,6.5 4.6016,6.79883 1.5,4.80078 0.7988,2 -0.5996,1.19922 2.8008,4.10156 1.1992,4.29883 1.5996,6.20117 -1.6992,2.5 -0.3008,1.39844 1.3008,3.80078 1.5,3.90039 1.5996,2.29883 0.3008,3.70117 -0.6016,4.69922 -1.8984,2.90039 -3.3008,4.19922 -1.4004,2.60156 -1.9004,5.79883 -0.2988,2.70117 -2,5.89844 -0.9004,5.70117 0.5,4 0.3008,4.90039 4.3984,6.29883 1.1016,4 2.7988,7.70117 2.8008,5.29883 2.09961,2.70117 0.5996,3.5 -0.1,7.69922 1.5996,9.90039 1.2012,4.59961 1,6.30078 2,4.59961 3.8984,4.90039 3.6016,8.29883 v 0.0996 l 2.3984,5.40039 3.3008,6 -0.1,4.90039 -1.8008,1.19922 1.5,4.30078 -0.2988,3.80078 0.5996,1.69922 0.2988,-0.90039 2.2012,2.90039 1.7988,0.0996 2.1016,2.30078 2.3984,-0.20117 3.5,-2.39844 4.6016,-1 5.7988,-2.60156 2.2012,0.40039 3.2988,-0.79883 5.7012,1.19922 2.6992,-1.19922 3.1992,1 0.9004,-1.80078 2.7012,-0.40039 5.8984,-2.40039 4.3008,-3 4.0996,-3.79883 6.7012,-6.59961 3.5,-4.60156 1.7988,-3.29883 2.5996,-3.30078 1.1016,-0.90039 4,-3.29883 1.7004,-2.90036 1,-5.30078 1.6992,-4.69922 0.7012,-3.40039 -1.3008,-0.40039 -0.2988,-2.69922 2.5,-2.40039 6.8984,-3.5 4.70123,-2.09961 2.4004,-2.30078 1,-2.69922 -1.2012,-1.09961 1.0996,-3 0.5,-6.30078 -1,0.40039 v -2 l -0.8984,-3.69922 -2.4004,-4.90039 0.7988,-4.59961 2.3008,-1.40039 4.1992,-4.59961 2.2012,-1.20117 6.5996,-6.90039 6.5,-3.09961 5.3007,-2.40039 3.6992,-4 2.4004,-4.5 1.9004,-4.59961 -0.8008,-3.09961 0.1992,-10 -0.5,-5.69922 0.5,-6.40039 -0.8984,-2.80078 -2,-1.40039 -2.2012,-6.39844 -1.7988,-4 0.3984,-3.10156 -0.2988,-1.89844 1.6992,-3.90039 -0.1992,-1.70117 -3.5,-2.29883 -0.3008,-3.59961 2.8008,-8 2.2988,-2.10156 1.1016,-4.19922 1.8984,-2.59961 0.8008,-4.59961 2.1992,-0.40039 1.4004,-2.70117 4,-2.59961 1.3008,-1.5 1.2988,-3.40039 6.2012,-7.79883 5.2988,-4.80078 8.4004,-6.40039 5.5996,-5.19922 6.6016,-8.80078 4.6992,-7.19922 4.5996,-9.40039 3.3008,-8.19922 2.4004,-7.09961 1.3984,-7 1.1016,-2.30078 -0.2012,-3.40039 0.4004,-3.69922 -0.1992,-1.80078 h -2.2012 l -2.5,2.20117 -3,0.69922 -2.5,0.90039 -1.7988,0.19922 -3.2012,0.20117 -2,1.19922 -2.7988,0.40039 -4.9004,2 -6.0996,0.69922 -5.2012,1.70117 h -2.7988 l -2.7012,-2.70117 -1.1992,-2.69922 -1.9004,-1.20117 -2.4004,-1.69922 3.0996,-1.59961 0.1016,-2.59961 -1.4004,-2 -2.9004,-1.90039 -1.8008,-2.20117 -3.1992,-3.79883 -3.3008,-3.59961 -8,-6.10156 -3.1992,-3.09961 -1.9004,-5.90039 -3.5995,-7.39844 -3.1992,-2.40039 -2.2012,-1.59961 -2.5,-7.60156 -1.1992,-6.69922 1.1992,-1.09961 -2.0996,-6.30078 -1.0996,-1.29883 -6.8008,-5.80078 -0.4004,-4.19922 1,-1.10156 -5.3984,-7.09961 -2,-3.59961 -2.30083,-3.5 -4.9004,-10 -3.9004,-6.5 -2.7988,-6.69922 0.5,-0.60156 4.6992,9.20117 2.7012,2.79883 2,2.10156 1.1992,-1.10156 1.1992,-3.39844 0.7012,-4.80078 1.29883,-2.59961 -0.69923,-1.59961 -3.9004,-9.40039 -2.5,1.59961 -4.2988,-0.40039 -4.4004,-1.5 -1.0996,2.09961 -1.8008,-3.19922 -3.9004,-0.80078 -4.6992,0.60156 -2.0996,1.79883 -4,2 -2.6016,-1 -5.5,-1.90039 -5.3984,-1.69922 -7.2012,0.0996 -1.5,-2.09961 -5.4004,-0.69922 -1.7988,-1.10156 -2,-0.0996 -2,-2.79883 -7.4004,-1.30078 -3.6992,0.80078 -3.7012,3 -1.5,3.19922 1.5996,4.90039 -2.5,2.90039 -2.5,1.69922 -6,-3.19922 -7.7988,-2.70117 -4.9004,-1.19922 -2.8008,-5.70117 -7.29881,-2.89844 -4.5,-1.10156 -2.3008,0.60156 -6.4004,-2.20117 -2.0996,-1 -1.4004,-3.09961 -2.7988,-0.0996 -1.2012,-3.5 3.5,-3.20117 0.5,-5.59961 -1.8984,-1.59961 -0.1016,-2.90039 2.5,-3.19922 -0.3984,-1.20117 -4.4004,2.40039 v -3.29883 z m 138.60161,237.59961 3.00003,1.30078 0.1992,0.40039 1.4004,2.5 -0.4004,4.69922 -2.8008,2.90039 -1.89843,2.90039 2.29883,2.19922 -3.29883,1.59961 -0.7012,-0.79883 -3.2988,0.40039 -2.5,1.5 -1.6016,-2.5 1.1016,-4.5 0.1992,-3.90039 -0.3008,-2.5 2.6016,-3.70117 3.5996,-0.89844 z m -23.0078,24.36328 0.01,0.0371 2,6.09961 v 0.30079 l -0.3008,2.80078 1,0.89844 -0.1992,2.70117 1.0996,2.59961 -1.4004,2.40039 4.5,4.40039 0.4004,3.89844 2.6992,6.60156 0.5,1.09961 -1,0.29883 -1.1992,-1.29883 -1.9004,-0.5 0.3008,-1.40039 0.2988,-1.09961 -1.5996,-1.70117 -0.6992,-3.5 -3.4004,-3.5 -1.8008,-4.59961 1,-2.69922 -1.5,-3.59961 z m 26.00783,38.73828 2.8984,3.39844 0.3008,6.80078 1.8008,2.40039 -0.1016,0.0996 -1.5,6.09961 0.6016,7.30078 0.1,0.90039 1.0996,0.29883 1,3.40039 -0.1992,0.80078 -1.9004,-2.5 -1,1.59961 -0.9008,-1.40038 0.1,-2.40039 -1.1992,-1.90039 0.1992,-2.79883 -1.5996,-4.70117 1.8008,-3.59961 -0.2012,-7.69922 -1.7988,-4.09961 0.1,-0.80078 z m 85.1991,16.29883 -2,2.90039 -0.3008,3.90039 -3.2988,4.40039 -2.4004,-0.80078 0.5996,2.80078 -1.7988,3.19922 -4.9004,4 -3.4004,3.59961 -2.4004,0.0996 -2.1992,1.20117 -3.2012,1.29883 -2.7988,0.20117 -1,4.09961 -2.2012,3.59961 0.1016,5.90039 0.7988,4.09961 1.0996,3 -0.7988,4.09961 -2.9004,4.90039 -0.1992,2.09961 -2.6016,1.10156 -1.2988,4.59961 0.1992,4.69922 1.5,5.09961 v 5.70117 l 1.2012,3.40039 4.1992,2.29883 3,1.59961 5.0996,-2.69922 4.5996,-1.5 3.1016,-7.5 2.8984,-8.90039 4.3008,-12.19922 3.4004,-8.80078 2.6992,-7.5 0.7012,-5.5 1.6992,-1.40039 0.6992,-2.79883 -0.7988,-4.70117 1.1992,-1.89844 1.5996,3.69922 1.2012,-1.80078 0.6992,-3.09961 -1.2988,-3 -0.4004,-7.69922 -1.2012,-4.30078 -1.3984,-2.69922 z"
     id="path303"
     inkscape:label="Africa" />
  <path
     d="m 1560.7571,490.24316 -2.9004,2.10156 -7.5996,1.5 2.2988,3.19922 5,1.19922 2.2012,3.80078 h 8.2988 l 0.4004,1.69922 -4,-0.0996 -6.1992,2.30078 4.1992,3.19922 -0.1,2.80078 1.0996,2.29883 2.2012,-0.5 1.7988,-3.19922 8.3008,6 4.5996,0.5 10.6992,5.5 2.3008,5.30078 1,7 -3.6992,1.79883 -2.8008,5.20117 7.1992,-0.20117 1.5,-1.79883 5.6016,1.29883 4.5996,5.30078 5.7988,0.19922 3.1016,1.09961 4.5996,-2.19922 -0.3008,-4.69922 3.7012,-2.20117 4.8984,-1.79883 7.1016,2.79883 2.5,5.59961 2.7988,3.60156 4,4.09961 5.5996,0.90039 4.7012,0.79883 1.1992,1.59961 3.8008,-0.39844 0.9004,-1.90039 -5.7012,-2.70117 1.8008,-1.19922 -4.3008,-1.09961 0.5996,-2.80078 -3.2988,0.20117 -3,-6.80078 -4.7012,-4.19922 -0.8984,-4.30078 5.1992,-0.69922 -1.0996,-3.40039 -9.2012,-4 -0.5996,-3.80078 -3,-3.19922 -3.6992,-3.30078 -10.3008,-3.69922 -9.5992,-4.4004 -6.0996,-1.19922 -4.0996,-2.30078 -4.8008,-2.19922 h -5 l -6.5996,3.79883 -5,6.80078 -5.7012,-3.80078 -1.2988,-10.40039 -0.9004,-2.39844 z m 53.2988,66.10156 -2.2988,2.39844 -0.4004,1.90039 -1.5,3.5 -1.8008,3.40039 0.6016,2.09961 -1.3008,1.30078 -1.4004,4.90039 0.1,3.59961 -0.6992,1.90039 0.1992,3.09961 -2.5996,5.09961 -1.2988,3.5 -1.7012,2.90039 -1.7988,3.40039 -4.1016,2.19922 -4.8984,-2.09961 -0.5,-2 -2.6016,-1.70117 h -1.5996 l -3.2988,-3.79883 -2.5,-2.20117 -4,-2 -3.8008,-3.59961 -0.1992,-1.79883 2.5,-3.20117 2.1992,-3.19922 -0.3008,-2.5 1.9004,-0.20117 2.5,-2.59961 2,-3.5 -2.1992,-3.19922 -1.5,1.29883 -2,-0.59961 -3.5,1.90039 -3.3008,-2 -1.6992,0.59961 -4.5,-1.59961 -2.7012,-2.59961 -3.5996,-1.59961 -3.0996,0.89844 3.9004,2.10156 -0.3008,3.29883 -4.9004,1.20117 -2.6996,-0.80078 -3.6992,2.30078 -2.9004,3.69922 0.5996,1.59961 -2.6992,1.70117 -3.5,5.09961 0.6992,3.5 -3.5,-0.59961 h -3.5 l -2.5996,-3.80078 -3.7012,-3 -2.7988,0.90039 -2.5996,0.90039 -0.4004,1.59961 -2.3008,-0.70117 -0.4004,1.80078 -2.8984,1.09961 -1.8008,2.5 -3.5,3.20117 -1.5,4.89844 -2.1992,-1.39844 -2.3008,3.09961 1.5,3 -2.5996,1.29883 -1.4004,-5.59961 -4.9004,5.5 -0.6992,3.5 -0.7012,2.59961 -3.8984,3.20117 -2,3.40039 -3.5,2.89844 -6.2012,1.90039 -3.0996,-0.19922 -1.5,0.59961 -1.0996,1.40039 -3.5,0.69922 -4.8008,2.40039 -1.4004,-0.80078 -2.5996,0.5 -4.6992,2.40039 -3.2012,2.70117 -4.8984,2.19922 -3.1016,4.40039 0.4004,-4.90039 -3.0996,4.59961 -0.1,3.80078 -1.3008,3.19922 -1.5,1.59961 -1.2988,3.70117 0.7988,1.90039 0.1,2 1.6016,5.09961 -0.6016,3.29883 -1.0996,-2.5 -2.2988,-1.89844 0.5,6 -1.8008,-2.80078 0.1,2.69922 1.9004,5.10156 -0.6992,5 1.6992,2.59961 -0.3008,1.90039 0.9004,4.19922 -1.4004,3.59961 -0.1992,3.70117 0.6992,6.5 -0.6992,3.79883 -2.3008,4.5 -0.5996,2.30078 -1.5,1.40039 -2.9004,0.89844 -1.5,3.70117 2.4004,1.19922 4.0996,4.09961 h 3.5 l 3.8008,0.20117 3.4004,-2 3.4004,-1.80078 1.5,0.30078 4.5,-3.40039 3.7988,-0.30078 4.2012,-0.69922 4.1992,1.09961 3.5996,-0.5 4.7012,-0.19922 3,-2.59961 2.2988,-3.40039 5.3008,-1.40039 7,-3.30078 5,0.40039 6.9004,-2.19922 7.8984,-2.30078 9.9004,-0.59961 4,3.19922 3.8008,0.10156 5.2988,3.89844 -1.5996,1.5 1.8008,2.40039 1.4004,4.70117 -1.7012,3.39844 3,2.60156 4.3008,-5.10156 4.2988,-2.19922 6.8008,-5.40039 -1.5996,4.70117 -3.5,3.19922 -2.5,3.69922 -4.5,3.5 5.2988,-1.19922 4.7012,-4.40039 -0.9004,4.70117 -3.1992,3.19922 4.6992,0.69922 1.4004,2.60156 -0.4004,3.29883 -1.5,4.80078 1.3008,4 4.0996,1.79883 2.7988,0.5 2.4004,1 3.5996,1.70117 7.2012,-4.59961 3.5,-1.20117 -2.5996,3.30078 2.5996,1.09961 2.6992,2.90039 4.8008,-2.80078 3.7988,-2.40039 6.3008,-2.69922 6.0996,-0.19922 4.3008,-2.20117 0.7988,-2.09961 3.1016,-4.40039 3.8984,-4.79883 3.7012,-3.20117 4.4004,-5.5 3.2988,-3.19922 4.4,-4.90039 5.5,-3.19922 5,-5.80078 3.0996,-4.59961 1.5,-3.70117 3.8008,-5.69922 2.0996,-3 2.5,-5.69922 -0.6992,-5.5 1.7988,-3.90039 1,-3.70117 v -5.19922 l -2.7988,-5.19922 -1.9004,-2.40039 -2.9004,-3.90039 0.6992,-6.80078 -1.5996,0.90039 -1.5,-2.69922 -2.5996,1.40039 -0.5,-7 -2.3008,-4 1.1016,-1.60156 -3.2012,-2.79883 -3.1992,-3 -5.4004,-3.40039 -0.8008,-4.30078 1.2012,-3.29883 -0.4004,-5.5 -1.3008,-0.80078 -0.1992,-3.19922 -0.1992,-5.5 1.0996,-2.90039 -2.3008,-2.5 -1.4004,-2.69922 -4,2.39844 -1.1992,-5 0.5996,-2.29883 0.1,-3.70117 -1.5996,-3.19922 0.1,-2.69922 -1.2988,-0.80078 0.1,-4 z m 122.9004,152.69922 -2.1992,0.5 -0.4004,4.59961 0.6992,5.59961 0.9004,2.70117 -0.7988,1.09961 -0.6016,4.30078 -2.5,4.09961 -4.1992,5 -5.3008,2.19922 -1.7988,2.30078 3.7988,2.5 -0.8984,3.59961 -6.9004,5.19922 1.5,0.90039 -0.5,1.70117 6,-2.60156 5.9004,-4.29883 4.5996,-3.5 1.5996,-1.09961 1.5,-2.80078 2.8008,-1.90039 3.8984,0.0996 4.2012,-3.69922 5.1992,-5.69922 -2.1992,-0.70117 -4.7012,2.40039 -3.1992,-0.5 -2.9004,-2.09961 2.4004,-4.80078 -1.3008,-1.79883 -2.8984,4.39844 0.3984,-6.79883 2,-5.70117 -3.1992,-1.5996 z m -26.0996,38.69922 -5.8008,2.90039 -3.5,3.59961 -3.0996,1.60156 -6,4.69922 -5.6992,3.30078 -7,3.29883 -5.5996,2.40039 -4.3008,1.19922 -11.4004,6.30078 -6.5,4.59961 -1,2.40039 5.0996,0.40039 1.5,2.09961 4.6016,0.0996 4,-1.79883 6.2988,-2.80078 8.2012,-6.40039 4.6992,-4.09961 6.3008,-2.40039 4,-0.0996 0.5996,-3 4.6992,-2.59961 7.0996,-4.70117 4.2012,-2.89844 2.0996,-2.70117 0.5,-2.69922 -5.5996,2.59961 0.7988,-2.59961 z m -147,1.30078 -2,2.90039 -0.5996,5.59961 -2,4.19922 -0.5,5.40039 3,0.20117 0.7988,0.29883 6.6016,-4.40039 0.5996,1.80078 4,-5.19922 3.2988,-2.10156 4.5,-7.59961 -2.7988,-0.40039 -4.9004,1.20117 -3.3008,0.90039 -3.6992,-2.20117 z"
     id="path306"
     inkscape:label="Oceania" />
  <path
     d="m 923.35677,44.844729 -7,1 -7.4004,-0.201172 -5.1992,4.400391 -6.7012,-0.300781 -8.5,2.40039 -10.29881,6.800782 -6.4004,4.099609 -8.9004,10.699219 -7.1992,7.800781 -8.0996,5.90039 -11.3008,4.90039 -4,3.699216 2,13.499996 1.8008,6.30078 6.5,3 6.0996,-1.40039 8.5996,-6.80078 3.3008,3.59961 4.1992,8.40039 4.5,6.90039 1.9004,5.69922 5.5,-0.29883 2.1992,-4.80078 5.7012,0.59961 2.0996,-5.69922 0.5996,-10 4.59961,-1.40039 3.3008,-6.59961 -4.8008,-3.30078 -3.69921,-4.099606 2.09961,-8.099606 7.8008,-5 6.1992,-4.5 -1.3008,-3.5 3.5,-3.900391 7,-1.599609 6.5,2.599609 0.9004,2.400391 -2.5996,1.199219 -8.8008,6.201172 -3.2988,3.499999 -1.5996,3.40039 3,5.199216 -0.1016,5.800776 4.7012,1.89844 3.1992,3.20117 7.0996,-1.30078 7.6016,-2.09961 8,-0.5 8,-7.400386 3.3984,-3.400386 0.9004,-2.89844 -7.4004,-3.90039 0.9004,-3.800781 -4.9004,-4.199218 1.7012,-4.800782 -6.5,-6.298828 2.9004,-4.201172 -7.3008,-3.699218 -0.4004,-3.800782 3.2012,-0.5 6.3984,-2.099609 -5.3984,-3.400391 4.8984,-1.40039 z m 4.4004,64.999991 -5.5996,0.79883 -5.5,1.70117 1,3.39844 3.2988,2.10156 1.5,-0.80078 0.1,3.5 -0.1,4.59961 -3.6992,0.20117 -4.4004,-4.5 -4.0996,2 -1.7012,3.79883 0.5,4.5 1.7012,5.09961 -6.3008,2 -0.6992,2.60156 h -4.5996 l -0.6016,-1.5 -4.7988,-1 -5.80081,2 -7.0996,2.79883 -3.0996,1.80078 -2.4004,-1.90039 -5.5996,-2.40039 -2.5996,1.59961 -4.7012,1.20117 -0.1,-2.20117 -4.9004,-1.39844 -0.2988,-2.30078 -1.4004,-3 3.0996,-4.30078 1.4004,0.60156 1,-2.30078 -2.5996,-0.90039 -0.7012,-1.59961 1.2012,-2 v -3.09961 l -3.6016,1.69922 -1.5996,1.70117 -4,0.29883 -1.2988,1.80078 -0.6016,1.69922 0.4004,6.09961 2.0996,3.40039 0.4004,3.40039 1.3008,2.30078 -3.0996,3 -1,-1.30078 -4,0.30078 -0.8008,1.29883 -4,-0.19922 -6.5,2.59961 -4,9 -2.5,1.69922 -3.90039,1.20117 -4.19922,1.29883 -1.5,5.10156 -11.40039,4.79883 -4.69922,-2.69922 1.5,7.09961 -8.30078,-1.59961 -6.5,1.29883 0.40039,4.60156 7.59961,2.39844 3.69922,3.20117 5.10156,6.59961 -1,12.59961 -2.70117,3.80078 -8.29883,-0.30078 -4.30038,0.40039 -5.40039,-1.09961 h -6.90039 l -6.19922,-1.09961 -7.40039,4.59961 2,2.69922 -0.5,4.5 0.20117,2.20117 0.89844,2.29883 v 2.70117 l -1.19922,3.79883 -0.5,2.59961 -2.19922,2.30078 -0.5,4.19922 1.09961,2.40039 2.40039,0.59961 0.29883,3.90039 -0.90039,5 2.70117,-0.69922 2.79883,0.90039 2.20117,-1.60156 4.90039,1 1.39844,3.60156 1.90039,2.19922 2.59961,0.5 2.10156,-2.40039 3.39844,-2.19922 5,0.0996 6.80078,-0.0996 3.69922,-4.90039 4,-1.30078 1.20117,-4.19922 3,-2.80078 -2,-3.69922 2,-5.19922 3.19922,-3.5 0.5,-2.10156 6.59961,-1.39844 4.90038,-4.20117 -0.4004,-3.69922 0.6016,-3.80078 7.3984,-2.09961 10.2012,1.69922 4.5,-3.59961 2.0996,-0.40039 2.9004,-3 2.2988,-0.79883 4.2012,2.09961 2.5996,0.69922 1.9004,6.30078 3.6992,3.59961 4.9004,4.20117 4.3008,2.79883 3.7988,0.40039 2.4004,2.59961 3.4004,1.20117 1.79881,2.69922 2.2012,0.80078 1.7988,3.19922 2.3008,3.69922 -1.0996,1.40039 -0.9004,3.40039 0.1,2 2.2012,-0.5 2.5,-5.5 2.0996,-0.40039 0.4004,-3.29883 -3.9004,-2.40039 1.9004,-4.09961 4.5996,1 3.0996,3 0.8008,-2.30078 -0.6016,-1.09961 -4.6992,-3.40039 -4,-1.90039 -4.8008,-2.29883 1.4004,-1.30078 -1.4004,-1.40039 -4,0.0996 -6.09961,-5.09961 -2.9004,-5.29883 -5,-3.20117 -1.8984,-3.19922 0.5,-1.80078 -0.4004,-3.09961 3.9004,-2.30078 4.0996,1 -1.0996,0.5 -0.1016,0.10156 v 2.19923 l 1.6016,2.09961 1.3984,-2.69922 3.3008,1 0.3008,2.09961 2.50001,2.69922 -1.00001,0.5 4.69921,4.60156 4.8008,1.89844 3.1992,2.30078 5,2.30078 2.3008,1.29883 1.6992,2.09961 1.0996,0.5 0.9004,1 -0.5,1.90039 -0.1,4.40039 0.6992,3 3.0996,2.19922 0.2012,1.40039 0.9004,0.40039 0.5,1.80078 3,3.69922 2.2988,2.90039 1.3008,4.29883 2.4004,5.10156 4.5996,2.79883 3.5,-0.0996 -2.5,-5.69922 3.2988,-0.60156 -1.7988,-3.29883 5,1.69922 -0.4004,-3.59962 -2.8008,-1.90039 -3.1992,-2.90039 1.9004,-1.39844 -2.9004,-3 -1.5996,-3.80078 0.9004,-1.40039 3.0996,3.30078 h 2.9004 l 2.5,-1.09961 -4,-3.60156 6.1992,-1.59961 2.6992,0.59961 3.2012,0.20117 0.1,1.29883 2,2.90039 3.9004,-3.40039 2,-2 6.1992,-0.29883 0.7012,-1.59961 -4.8008,-2 -0.9004,-2.5 -2.0996,-3.60156 1.3008,-4.5 2.2988,-2.59961 0.4004,-7.69922 1.5996,0.59961 2.3008,-1.30078 -0.4004,-1.69922 3.3008,-4.59961 1.2988,-3.5 4.5,-0.80078 0.8008,2.40039 8.0996,1.59961 1.6992,1.40039 -4.5996,2.09961 -0.6992,1.20117 5.9004,1.89844 -0.7012,2.90039 3.0996,1.30078 6.3008,-3.59961 5.4004,-1.10156 0.5996,-2.29883 -5.0996,0.40039 -2.8008,-1.5 -1,-3.90039 4,-2.40039 4.5996,-0.30078 3,-2.09961 3.90043,-0.5 -0.4004,-2.69922 2.2012,-1.80078 4.7988,-0.40039 0.3008,-2.09961 -1.8008,-3.5 1.3008,-3.19922 -0.4004,-1.90039 -7.6992,-2 -2.90043,0.0996 -3.5996,-2.90039 -3.5996,1 -6.7012,-2.19922 -0.1,-1.19922 -2.3008,-2.70117 -3.8984,-0.29883 -0.8008,-1.90039 0.9004,-1.30078 -3.8008,-3.5 -4.9004,0.59961 -1.5,-0.29883 -1,1.40039 -1.7988,-0.20117 -2,-4 -1.5,-2 0.7988,-0.59961 3.9004,0.19922 1.5996,-1.29883 -1.6992,-1.59961 -3.4004,-1.10156 v -1.09961 l -2.0996,-1.0996 -3.8008,-4 0.7012,-1.59961 -1.0996,-2.90039 -4.8008,-1.40039 -2.4004,0.70117 -0.9004,-1.5 -5.2988,-1.5 -2.0996,-3.60156 -1,-2.89844 -2.5,-1.30078 1.5996,-1.90039 -2.4004,-5.59961 2.5996,-3.40039 -0.9004,-1 -4.6992,0.0996 z m -131.3008,5.69922 -5.59961,0.5 -3.59961,-0.40039 -3.80078,4.80078 -1.90039,6.19922 2.20117,3 0.0996,5.90039 2.59961,-2.90039 1.5,1.70117 -1.79883,2.69922 1.09961,1.59961 5.69922,1.09961 0.0996,0.10156 3.10156,3.69922 -0.80078,3.59961 -7.09961,-0.59961 -1,4 2.5,3.30078 -5.09961,1.89844 1.29883,2.5 7.59961,1 -4.39844,1.40039 -7.30078,6.5 2.5,1.20117 3.59961,-2.40039 4.5,0.69922 3.30078,-2.90039 2.19922,1.30078 8.40039,-1.80078 6.5,0.10156 4.40039,-3.20117 -1.90039,-3.19922 2.40039,-1.80078 0.59961,-4 -5.90039,-1.09961 -1.40039,-2.40039 -2.89844,-7 -3.20117,-1 -4.19921,-7.09961 -0.30078,-0.69922 -4.90039,-0.30078 4.30078,-5.40039 1.30078,-4.90039 h -5.10156 l -4.69922,0.80078 z m -18.09961,20.80078 -4,0.29883 -3.69922,2.80078 -6.70117,4.79883 2.09961,6.20117 -4.29883,6.40039 6.79883,0.89844 8.80078,-3.59961 3.90039,-5.5 -0.70117,-4.40039 2.70117,-4.09961 z m 237.19924,72.19922 -0.3984,0.80078 2.1992,1.89844 3,0.70117 3.4004,2.40039 2.0996,4.29883 -0.3008,2.70117 -5.5,3.39844 -4.5996,-0.59961 -5.7988,1 -7.9004,-2.5 -9.80083,-4.5 -8.5,0.20117 -5.7988,1.79883 -5.6016,4.09961 -10,-0.89844 -1.5996,4.89844 -8,0.20117 -5.0996,6.09961 3.5996,3.09961 -2,5 4.2012,3.5 3.7988,6.40039 5.8008,-0.0996 5.4004,3.40039 3.5996,-0.80078 1,-2.59961 5.6992,0.19922 4.7012,3.40039 8,-0.69922 3.1992,-3.70117 4.5996,1.5 3.20123,-0.59961 -1.7012,2.40039 2.3008,2.90039 1.2988,-1.40039 1.2012,-1.40039 -0.2012,-3.5 1.9004,1.19922 5.5996,-1.79883 3,1.19922 h 4.4004 l 5.7012,-2.40039 2.8983,0.10156 5.9004,-1 2.0996,-1 6.3008,0.89844 2.0996,1.60156 2.4004,-1.10156 -3.8008,-5.09961 0.7012,-2 -2.9004,-7.29883 3.3008,-1.90039 1.1992,2.5 3.1992,2.90039 3.8008,0.89844 1.8008,-0.19922 5.2988,-4.69922 1.9004,-0.5 1.9004,1.89844 -1.2012,3.10156 3.9004,3.39844 1.3008,-0.39844 -0.8008,-3.10156 1.7012,-1.5 0.3984,-2.19922 -0.1,-5 4.2012,-0.5 -1.9004,-1.69922 -2.5,-0.30078 -3.5996,-4.59961 -3.5,-3.30078 -2.5,2.59961 -0.6016,1.60156 -2.3984,-0.5 -4.3004,-3.80079 -1.5,-0.19922 -3.5996,-1.5 -2.0996,-2.60156 -5.1016,-1.29883 -2.8984,1 -1.2012,-1.20117 -7.5996,-3.09961 -7.6991,-1 z m -123.50003,33.90039 -4.00001,0.59961 -5.3984,0.69922 -6.2012,-0.59961 -0.5,3.30078 7.5,3.19922 2.7012,0.70117 4.19921,2.39844 0.9004,-3.29883 -0.9004,-1.90039 z"
     id="path304"
     inkscape:label="Europe" />
  <path
     d="m 431.25715,40.944339 -8.20117,3.798828 -5.5,5.90039 2.90039,2.201172 1.59961,3.298828 -6.39844,5.5 -3.20117,-0.199218 -6.19922,4.40039 4.29883,-5.201172 -4.89844,-1.798828 -4.5,0.898438 -2.40039,3.40039 -6,-0.09961 -7.20117,0.900391 -5.29883,-2.5 -5,0.40039 -1.5,-2.90039 -2.09961,-1.300782 -3.90039,0.5 -5.20117,0.300782 -4.5,1.798828 2.10156,2.40039 -7.10156,2.701172 -1.39844,-3.30078 -4.40039,1 -11.90039,0.599609 -6.40039,-1.099609 8.5,-2.699219 -2.90039,-2.800781 -4.39844,0.300781 -4.70117,-0.90039 -7.5,-2 -3.90039,-2.201172 -4.59961,-0.298828 -3.19922,1.5 -6,0.90039 3.90039,-4.101562 -9.5,3.701172 -1.40039,-4.800782 -2.09961,-0.599609 -3.90039,2.5 -4.5,1.300781 -0.20117,-2.201172 -8.19922,1.300782 -8.90039,2.298828 -5.29883,-0.59961 -7,1.701172 -6.30078,2.199219 -3.69922,-0.5 -3.30078,-2.599609 -6,-1.300782 -3.5,-0.699218 -4.09961,-1.59961 -6.59961,0.798828 -2.20117,-0.599609 -7.19922,-0.599609 -6.20117,-1.59961 -4.89844,0.5 -4.90039,-0.90039 1.90039,-1.201172 -6.30078,-0.298828 -3.30078,1 0.5,-2.400391 -4.39844,-1.099609 -10.40039,2.798828 -3.09961,-0.398438 -11.20117,2.398438 -4.79883,0.601562 -7.90039,2.59961 -4.80078,2.599609 -8.79883,2.400391 -7.5,0.199218 -6.5,2.900391 3.29883,1.699219 0.70117,2.300781 -0.80078,2.800781 2.30078,2.09961 -1.20117,3.5 -9.19922,0.199218 4.29883,-2.798828 h -3.5 l -13.19922,2.699219 -9.199219,2.400391 1,3.199218 -1.20117,2.300782 4.59961,1.40039 6.900389,-0.701172 1.80078,1.300782 2.90039,-1.300782 6.19922,-1.199218 2.80078,-0.09961 -6,2.199219 1.09961,1 -2.5,2.599609 -5.59961,1.800781 -2.5,-0.5 -7.101559,2.79883 -1.79883,-0.89844 -4.09961,0.39844 -5.30078,2.90039 -7.69922,3.300776 -5.90039,3.29883 0.40039,2.499996 -4,3.30078 1.29883,1.40039 0.59961,2.79883 7.20117,-1.19922 0.40039,2.09961 -3.30078,2.20117 -3.69922,3.5 h 2.79883 l 7.30078,-2.30078 -1.59961,2.90039 3.59961,-2.09961 -0.40039,3 4.90039,-2.20117 0.29883,1.09961 7.30078,-1.79883 -6.19922,3.5 -5.80078,4.5 -5.69922,2.09961 -2.30078,1.19922 -10.40039,3.60156 -5,2.5 -6.5,0.59961 -8.59961,3.29883 -6.599611,1.90039 -8.20117,2.80078 -0.39844,1.09961 10.000001,-1.80078 6.09961,-2 7,-2.09961 6.19922,-1.59961 2.70117,0.40039 8.19922,-2.59961 4.5,-2.80078 10.59961,-3.09961 4,-2.59961 6.59961,-1.90039 7.70117,-2.5 8.999999,-4.20117 -0.20117,-2.89844 11.20117,-4.20117 7.40039,-3.90039 9.39844,-3.19922 -0.39844,1.40039 -6.80078,1.79883 -8.40039,5.80078 -3.19922,3.5 6.40039,-1.30078 6.19922,-2 6.59961,-1.19922 2.90039,-0.40039 3.5,-4.09961 6.30078,-1.19922 2.69922,2.5 6,2.69922 6.80078,-0.5 5.69922,2.09961 3.30078,1.09961 3.29883,6.10156 3.80078,1.79883 7.09961,0.0996 4.09961,0.40039 -2.69922,5.59961 1.59961,4.90039 -3.30078,5.20117 2.5,2 0.60156,2.19922 -2.5,3.19922 2.09961,4.40039 -3.09961,4.90039 4.09961,2.69922 -3.59961,3.70117 -1.30078,5.5 7,2.59961 1.59961,2.69922 5.40039,6.10156 h 0.69922 l -1.59961,5.09961 -2.5,5.09961 -2.19922,1.69922 1,-5.89844 -5.80078,-2.20117 -1.40039,1.30078 -0.39844,2.90039 -1.80078,5.29883 -4.30078,8.5 -4,5.70117 -4,5.69922 -5.5,6 -1.09961,4.90039 -2.79883,5.40039 -3.90039,5.29883 0.90039,3.5 -1.80078,5.20117 1.5,5.39844 1.30078,2.10156 -0.90039,1.5 0.5,8.89844 2.5,6.40039 -0.80078,3.5 0.90039,1.09961 4.80078,0.60156 1.19922,1.69923 2.90039,0.40039 -0.0996,1.79883 2.19921,0.80078 2.09961,3.69922 -0.29883,3.20117 0.19922,5.79883 0.80078,5.10156 0.59961,4.29883 0.79883,4 2.60156,1.70117 2.89844,4.59961 -1,2.90039 -2.69922,2.39844 -2.09961,-0.29883 -0.5,0.40039 2.19922,3.79883 3,1.5 1,1.70117 0.90039,-0.80078 3.09961,2.80078 2.09961,2 0.10156,3.5 -1.20117,4.69922 2.5,1.59961 3.40039,3.09961 2.90039,3.70117 0.69922,3.90039 h 1 l 2.80078,-2.30078 0.29883,-1.19922 -1.5,-2.90039 -1.59961,-2.90039 -2.59961,-0.19922 0.30078,-3.40039 -0.90039,-3 -1,-2.80078 -0.40039,-6 -2.69922,-3.19922 -0.5,-2.30078 -1.30078,-1.59961 v -4.19922 l -1,0.0996 -0.0996,-2.20117 -0.70117,-0.39844 -0.39844,-1.60156 -2.80078,-4.39844 -1,-2.60156 1,-4.89844 0.0996,-3 1.80078,-2.60156 2.40039,1.70117 1.89844,-0.30078 3.10156,2.59961 -0.80078,2.5 0.30078,4.90039 1.5,4.80078 -0.30078,2 1.69922,3.19922 2.30078,3.30078 2.80078,0.59961 0.19922,4.40039 2.5,3.19922 2.40039,1.5 -1.70117,3.90039 0.70117,1.59961 4.09961,2.59961 1.90039,4 4.59961,5 3.80078,6.40039 1.29883,3.30078 v 2.5 l 1.5,2.90039 -0.40039,2.19922 -1.59961,1.69922 0.30078,1.80079 -1.90039,0.59961 0.80078,3.20117 2.19922,4 5.40039,3.69922 1.90039,2.90039 5.39844,2 3.10156,0.40039 1.09961,1.69922 4.29883,3.09961 5.90039,3 4.09961,0.90039 4.80078,2.90039 4.09961,1.19922 3.70117,1.70117 2.89844,-0.60156 4.80078,-2.39844 3.19922,-0.5 4.40039,1.69922 2.59961,2.09961 5.60156,6.90039 2.79883,2.59961 2.40039,1.30078 3.5,0.0996 2.80078,1.09961 1.5,1.40039 3,0.40039 2.19922,1.29883 2,0.60156 3.30078,0.0996 0.69922,-1.5 1.69922,0.59961 0.80078,2 -0.5,0.40039 -0.80078,-1 -0.69922,1 2.5,2.90039 2.19922,2.09961 1.10156,2.09961 2.5,2.59961 1.79883,2 -1.40039,1.30078 1.5,0.90039 -0.89844,2 -0.10156,2 0.70117,1.19922 1.69922,0.69922 1.20117,1.80078 1.19922,-1.59961 -0.19922,-1.80078 1.39844,1.09961 0.30078,1.90039 1.80078,0.80078 2.19922,1.29883 1.5,1.5 0.0996,1.40039 -0.69922,1.09961 1.09961,1.40039 3,1.40039 0.59961,1 0.20117,-1.40039 h 2.39844 l 1.5,0.70117 2.30078,0.5 1,2.5 1.80078,0.39844 0.79883,-1.09961 0.80078,3.90039 2.69922,-0.40039 0.80078,-0.90039 1.59961,-0.79883 -2.5,-3.5 0.59961,-1.40039 1.20117,-0.19922 2.39844,-1.60156 1.30079,-2.1992 2.40039,-0.40039 2.79883,1.80078 0.90039,2.09961 1.40039,0.40039 -1.40039,1.69922 1,3.5 1.80078,1.80078 0.90039,-3.09961 1.79883,0.5 1.09961,-1.90039 -1.09961,-3.80078 0.70117,-0.90039 -2,-1.79883 -1.80078,-1.90039 -2.40039,-1.19922 -3.09961,-0.20117 0.19922,-0.59961 -3.09961,-0.40039 -2,1.90039 -3.5,1.30078 -2.5,1.59961 -2.79883,0.5 -1.5,-1.59961 -0.60156,0.59961 -2.19922,-0.30078 0.19922,-1.40039 -1.89844,-2.29883 -2.5,-2.70117 -2,-2.59961 -1.20117,-3.5 -0.79883,-1.09961 -0.10156,-1.69922 1.20117,-1.60156 -0.20117,-1.69922 0.70117,-2.80078 0.90039,-0.59961 0.0996,-2.90039 -0.20117,-1.69922 0.5,-2.80078 0.80078,-2.59961 1.5,-2.19922 -0.40039,-2.30078 0.5,-1.40039 0.5,-0.69922 -1.29883,-1.69922 -1.90039,-1 -1.5,-1.40039 -1.59961,-1.20117 -0.80077,-0.19922 -2.5,-0.90039 -1.19922,0.59961 -1.5,0.10156 -1.30078,-0.40039 -1.69922,-0.30078 -0.80078,0.70117 -1.80078,0.69922 -2.59961,0.19922 -2.59961,-0.59961 -0.90039,0.30078 -0.5,-0.5 -1.59961,0.0996 -1.30078,1.09961 -0.59961,-0.29883 -1.5,-0.80078 -0.59961,1 -1.69922,-1.19922 1.29883,-2.20117 1.09961,-0.19922 1.30078,-1.70117 1,-3.29883 -0.30078,-0.59961 0.90039,-2.30078 -0.40039,-1 1.30078,-2.69922 0.30078,-1.80078 h -1 l 0.0996,-1 1.09961,-0.0996 1.19922,1.69922 2.10156,-5 1.19922,-2.79883 -0.90039,-1.10156 1.80078,-3.89844 3.5,-3.80078 0.59962,-3.09962 -1.19922,-1.40039 -3.40039,0.59961 -4.90039,-0.29883 -6.09961,1.5 -4,1.69922 -1.20117,1.90039 -1.19922,5.40039 -1.80078,3.69922 -3.89844,2.59961 -3.60156,1.09961 -4.39844,1.20117 -4.30078,0.59961 -5.19922,1.80078 -1.90039,-2.70117 -5.70117,-1.69922 -1.69922,-3.09961 -0.80078,-3.70117 -3,-4.79883 -0.39844,-4.90039 -1.30078,-3.20117 -0.40039,-3.5 1.09961,-3.09961 1.80078,-8.59961 1.80078,-4.59961 3.19922,-5.70117 -0.59961,-2.19922 0.40039,-3 1,-4.5 1.89844,-2.90039 3.70117,-3 6.09961,-2.79883 6.09961,-4.70117 5,-1.5 3.5,-0.5 3.59961,1.5 4.90039,-0.79883 3.30078,3.39844 3.90039,0.20117 2.29883,-1.20117 1.80078,0.90039 1.19922,-0.79883 -0.79883,-1.30078 0.69922,-2.59961 -0.59961,-1.70117 2.5,-1 4.29883,-0.5 4.60156,0.80078 6.39844,-0.90039 3,1.59961 2,3 0.90039,0.40039 6.09961,-3 1.90039,1 3.09961,5.40039 0.80078,3.5 -2,4.30078 0.40039,2.5 1.59961,4.89844 2,5.5 1.80078,1.5 0.39844,2.80078 2.60156,0.80078 1.79883,-0.80078 2,-3.90039 0.59961,-2.5 1,-4.40039 -1.29883,-7.39844 0.5,-2.80078 -1.5,-4.5 -0.59961,-5.5 v -4.5 l 1.89844,-4.5 3.5,-3.80078 3.80078,-3.09961 6.90039,-4.19922 1.29883,-2.09961 3.40039,-2.40039 2.80078,-0.40039 4.40039,-3.80078 6.09961,-1.89844 4.59961,-4.70117 1,-6.40039 v -2.19922 l -1.40039,-0.5 1.5,-6.09961 -3,-2 3.20117,1 v -4.09961 l 1.89844,-2.80078 -1,5.40039 2,2.40039 -2.89844,4.39844 0.39844,0.20117 4.5,-5.09961 2.40039,-2.5 0.59961,-2.40039 -1,-1.09961 v -3.5 l 1.20117,1.59961 1.09961,0.29883 -0.0996,1.70117 5.29883,-4.90039 2.5,-4.59961 -1.39844,-0.30078 2.09961,-1.79883 -0.4004,0.79883 h 3.30078 l 7.89844,-1.90039 -1.09961,-1.19922 -8.09961,1.19922 5,-1.89844 3.09961,-0.30078 2.30078,-0.30078 4.19922,-1.09961 2.5,0.0996 3.80078,-1 1,-1.79883 -1.09961,-1.40039 -0.20117,2.30078 -2.09961,-0.20117 -0.69922,-3.29883 1.19922,-3.40039 1.30078,-1.40039 4,-3.80078 6,-1.89844 6,-2.20117 6.39844,-3 -0.19922,-2.0996 5.90039,-0.80078 8.09961,-0.19922 -10.40039,5.30078 -1.5,5.29883 3.70117,0.5 7.19922,-4.59961 5.80078,-2.5 12.39844,-3.80078 7.40039,-4.09961 -2.5,-2.29883 1,-4.60156 -7.19922,7.10156 -8.59961,0.89844 -5.60156,-3.09961 -0.0996,-4.79883 0.59961,-6.70117 6.10156,-4.19922 -3.30078,-3.09961 -7.59961,0.59961 -12.30078,5.19922 -10.90039,8.30078 -4.69922,1 7.90039,-5.80078 10.09961,-8.19922 7.40039,-2.80078 5.69922,-4.5 5.30078,-0.40039 h 7.29883 l 10.10156,1.40039 8.59961,-1.09961 7.90039,-5 8.79883,-2.19922 4.20117,-2.20117 4.29883,-2.29883 2,-6.90039 -1.09961,-2.30078 -3.40039,-0.79883 v -5.20117 l -2.40039,-1.90039 -6.89844,-1.59961 -2.90039,-3.40039 -4.80078,-3.39844 3.40038,-3.80078 -2,-7.19922 -2.59961,-7.5 -1.09961,-5.30078 -4.20117,2.69922 -7.5,6.60156 -8.19922,3.29883 -1.59961,-3.5 -3.80078,-1 2.30078,-7.40039 2.59961,-4.89844 -7.70117,-0.5 -0.19922,-2.201166 -3.59961,-3.40039 -3.09961,-1.999996 -4.5,1.60156 -4.20117,-0.60156 -6.69922,-1.59961 -3.80078,1.40039 -3.90039,8.999992 -1,5.30078 -8.89844,6.19922 3.19922,4.5 0.40039,5.09961 -1.70117,4 -4.79883,4.20117 -7.5,4.19922 -9,2.90039 1.69922,3.19922 -2.29883,9.59961 -5.60156,6.40039 -4.69922,2 -4.40039,-5.90039 -0.0996,-6.89844 1.69922,-6.10156 3.60156,-5.19922 -4.80078,-0.59961 -7.59961,-0.40039 -3.59961,-2.5 -4.90039,-1.69922 -1.70117,-2.80078 -3.29883,-2.30078 -7,-2.59961 -7.30078,1.20117 0.80078,-4.60156 1.5,-5.5 -6,-1 4.90039,-6.89844 5,-4.60156 9.39844,-6.499996 8.70117,-4.699216 5.69922,-0.69922 2.90039,-3.80078 5.09961,-2.400391 6.5,-0.40039 7.70117,-3.798828 3,-2.5 7.39844,-4.701172 3.30078,-2.798828 3.19922,1.699218 6.5,-0.90039 10.90039,-3.898438 2.40039,-2.701172 -0.90039,-2.90039 5.09961,-2.898438 1.70117,-2.701172 -3.59961,-2.699218 -5.40039,-0.800782 -5.5,-0.40039 -4.70117,5.90039 -6.5,4.800782 -7.29883,3.90039 -1.30078,-3.701172 4.30078,-4 -2.20117,-3.5 -8.89844,4.201172 4.39844,-5.5 -6.69922,-1.101562 5.80078,-2.59961 -0.40039,-6 -2,-2.298828 z m -58.20117,133.798821 4.10156,1.20117 3.29883,0.19922 0.80078,0.80078 0.0996,3.59961 5.19922,0.90039 -1.69921,1.79883 1.19922,1.80078 -1.89844,2.40039 1.79883,0.79883 -1.90039,2.10156 -1.5,-0.20117 -0.29883,-1.79883 -5.09961,0.5 -5.10156,1.39844 -2.5,-2.39844 -2.5,-0.80078 3.10156,-3.30078 -5.40039,2.10156 -4.90039,2.09961 -4.59961,1.5 -2.09961,-2.09961 -5.70117,1.29883 0.5,-0.90039 4.59961,-2.69922 4.70117,-2.5 6.09961,-2 3.09961,-2.5 3.30078,-1 1.79883,-1.5 z m 13.60156,14.90039 0.39844,1.40039 3.40039,0.80078 h 3.90039 l 3.80078,0.69922 4,1.19922 0.89844,2 1.40039,4.80078 -2.40039,2.09961 -3.79883,-0.90039 -1.09961,-3.89844 -0.90039,4 -3.80078,3.5 -0.90039,3 -1.09961,1.79883 -4.09961,2.09961 0.69922,-2.59961 0.5,-3.69922 -1.59961,-0.59961 -4.29883,2.69922 h -1 l 0.39844,-1.59961 3.80078,-2.5 1.59961,-2.90039 0.80078,-2.90039 -2.80078,-2.40039 -3.79883,-1.29883 -1.70117,2.40039 -1.29883,0.59961 -2.20117,3.09961 0.40039,-2.09961 -2.69922,1.5 -2.10156,2.19922 -2.59961,3.09961 -1.40039,2.70117 0.10156,3.90039 -1.80078,4.19922 -3.30078,3.09961 -1.39844,0.80078 -1.60156,0.69922 -1.79883,0.0996 -0.30078,-0.5 -0.0996,-3.29883 0.59961,-1.70117 0.80078,-1.5 0.5996,-3.0996 2.5,-3.59961 2.90039,-4.40039 4.69922,-4.90039 h -0.69922 l -5.5,4.10156 -0.40039,-0.70117 3,-2.29883 4.69922,-4.10156 3.70117,-0.59961 4.5,-1.19922 3.69922,0.69922 h 0.0996 l 4.70118,-0.59961 -1.5,-2.5 z m 32.69922,14.80078 0.90039,0.40039 v 0.0996 l 0.19922,0.90039 -0.59961,2.5 -4.59961,2.09961 -4,-0.5 -3.90039,-0.30078 -2.69922,0.80078 h -0.30078 l -1.69922,0.40039 -1.80078,-0.70116 2.30078,-2.09961 1.89844,-0.80078 3.90039,-0.89844 4.70117,-0.80078 1.79883,1.09961 1.90039,-1.29883 z m -15,7.90039 -0.0996,0.59961 -5.80078,3.79883 -4.59962,1.80078 -3,0.90039 -3.69922,1.69922 -4,0.90039 -2.5,-0.40039 -2.70117,-1.29883 2.70117,-2.40039 2.69922,0.40039 4.59961,-2 2.90039,-1.80078 1.59961,-0.30078 2.59961,0.60156 1.70117,-1 2.79883,-0.80078 z"
     id="path301"
     inkscape:label="North America" />
  <path
     d="m 406.15754,408.04394 -2.90039,3.09961 -2.30078,1.40039 -4.59961,3.19922 -4.40039,-0.5 -0.59961,1.30078 -3.5,0.19922 -3.40039,2.90039 -1.40039,5.5 -0.0996,2.09961 -2.40039,0.70117 -4.5,4.5 -2.89844,-0.20117 -0.70117,0.90039 1.09961,3.80078 -1.09961,1.90039 -1.79883,-0.5 -0.90039,3.09961 2.19922,3.5 0.70117,5.40039 -1.30079,1.69922 1.09961,5.90039 -1.19922,3.69922 2,1.5 -2.20117,3.40039 -2.5,4 -2.79883,0.40039 -1.40039,2.40039 0.19922,3.19922 -2.09961,0.5 0.70117,2 -3.90039,2.5 -3.09961,1.40039 0.29883,2.59961 -2.09961,4.09961 -1,4 -2,1 1,5.80078 -1.09961,1.79883 3.5,2.90039 2.09961,-3 1.30078,2.80078 -2.90039,4.79883 -4.40039,4 -1.69922,4.5 3,6.20117 -1.70117,2.79883 4.09961,2.60156 4.60156,4.19922 2,4.69922 2.39844,3 6,12.80078 6.40039,11.80078 5.40039,8.39844 -0.80078,1.90039 2.80078,5.30078 4.69922,3.90039 10.70117,7.09961 11.69922,6.40039 0.80078,2.59961 5.90039,3.69922 2.09961,9.09961 1.5,10.5 -0.0996,14.30078 v 13.40039 l 0.89844,12.40039 -1.79883,7.79883 2.0996,7.90039 -0.59961,5.30078 3.29883,9.69922 -0.0996,9.5 -1.19922,10.30078 -0.59961,10.29883 -2.20117,0.30078 2.40039,7.19922 3.30078,6.20117 -1.10156,4.39844 2,11.80078 1.5,9 3.5,0.90039 -1,-7.90039 4,1.69922 1.80078,13.10156 -6.5,-2.20117 2,10.5 -2.69922,5.5 8.29883,1.90039 -3.40039,4.80078 0.20117,6 5,10.59961 4.19922,4.19922 0.30078,3.59961 3.19922,3.90039 7.59961,3.5 7.5,4.30078 6.30078,1.90039 1.90039,-0.10156 -1.70117,-5.69922 3.40039,-2.19922 1.70117,-1.5 h 4.29883 l 2.09961,0.29883 -4.59961,-3.5 -4.19922,-6.5 0.90039,-2.90039 3.5,-2.39844 0.59961,-7.30078 4.59961,-3.5 -0.19922,-5.69922 -5.20117,-1.20117 -6.5,-4.59961 -0.0996,-4.80078 3,-3.19922 h 4.80078 l 0.0996,-3.40039 -1.20117,-6.29883 2.90039,-4 4.20117,-2 -2.5,-3.30078 -2.30078,2 -4,-1.90039 -2.5,-6.29883 1.5,-1.70117 5.59961,2.40039 5.09961,-0.90039 2.5,-2.29883 -1.79883,-3.20117 -0.0996,-4.69922 -2.10156,-3.90039 6,0.69922 10.20117,-1.29883 7,-3.5 3.29883,-8.20117 -0.29883,-3.09961 -3.90039,-2.79883 -0.19922,-4.40039 -7.80078,-5.5 -0.30078,-3.40039 3.90039,3.59961 3.59961,-0.19922 5.5,2.69922 2.80078,-0.69922 4.19922,1.29883 5.40039,-3.5 1.59961,-4.09961 2.90039,-3.59961 1.5,-6.09961 3.20117,-3.09961 4,-5 4.5,-11.30078 3.39844,-3.59961 0.80078,-3.09961 0.30078,-6.5 -1.3008,-3.5 0.30078,-4.80078 4.09961,-6.40039 6.09961,-5.09961 6,-1.90039 3.69922,-2.90039 8.5,-2.39844 h 6 l 1.10156,-3.90039 4.29883,-2.70117 0.5,-6.69922 5.20117,-8.30078 0.5,-8.59961 1.59961,-2.59961 0.29883,-4.19922 1.10156,-9.90039 -0.90039,-12 1.29883,-4.70117 1.40039,-0.19922 4,-5.5 3.40039,-7.30078 7.69922,-8.89844 2.70117,-4.20117 2.09961,-10.59961 -1.09961,-3.90039 -2,-8.19922 -2.09961,-2 -4.80078,-0.30078 -4.40039,-1.79883 -7.40039,-7.20117 -8.39844,-5.29883 -8.5,0.19922 -11,-3.40039 -6.60156,2 0.90039,-3.59961 -2.79883,-3.69922 -9.5,-3.90039 -7.10156,-2.30078 -4.29883,4.20117 -0.20117,-6.5 -10.09961,-1 -1.69922,-1.90039 4.29883,-5.30078 -0.0996,-4.40039 -3.09961,-1.09961 -3,-11.19922 -1.30078,-3.59961 -2,0.29883 -0.79884,-2.59961 -5.90039,-5.40039 -4.09961,-1.5 -1.90039,-0.69922 -6.09961,-1.80078 -4.59961,0.5 -0.60156,1.20117 -6.79883,-1.30078 -2.09961,-2.30078 -3,-3.09961 -2.10156,-0.0996 -0.0996,-3.40039 -3.29883,-4.09961 -3.60156,-2.40039 -2.19922,-1.5 -2.90039,0.0996 -0.69922,-5.09961 -4.20117,-3.19922 -4.5,-0.40039 -1.79883,-3.09961 4.90039,-1.90039 -6.70117,0.0996 -7.09962,0.4004 -0.0996,1.59961 -3.30078,2 -4.19922,-0.79883 -3.09961,-2.80078 -6.10156,0.59961 h -5 l -0.19922,-2.19922 -3.40039,-3.5 -4,-0.0996 -1.69922,-4.60156 -2.09961,2.10156 0.59961,3 -7.20117,2.59961 v 4.90039 l 1.70117,2.19922 -1.5,4.69922 -2.5,0.40039 -1.9004,-5.09962 2.69922,-3.69922 0.30078,-3.40039 -1.69922,-2.90039 3.39844,-0.80078 0.20117,-1.5 1.19922,-2.09961 -1.29883,-1.69922 z m 69.09961,415.09961 -3.40039,2.59961 0.30078,4.20117 -1.20117,2.79883 -7.29883,-2.19922 -8.60156,-4.09961 -4.59961,-1.30078 9.80078,6.90039 6.40039,3.19922 7.5,3.40039 5.39844,0.90039 4.20117,1.80078 3.09961,0.5 2.40039,0.19922 3.19922,-1.90039 0.5,-2.40039 3.30078,2.10156 4.40039,-0.30078 0.79883,-3 -7.29883,-1.5 -7.80078,-3.69922 -4.30078,-4.60156 -3.09961,-2.79883 z"
     id="path302"
     inkscape:label="South America"
     style="display:inline" />
  <path
     d="m 1192.1575,11.944339 -6.2012,2 -0.9004,2 1.5,2.199218 -7,-0.09961 -5.3984,2.599609 -4.3008,-1.099608 -9.3008,0.400391 0.2012,1.40039 -9.3008,0.699219 -4.9004,2.400391 -4.1992,0.199218 -1.3008,3.300782 5.6016,2.599609 -7.8008,0.699219 -9.5,-0.199219 -5.9004,1 4.9004,5.5 6.9004,4.300781 -9.5996,-3 -8.1016,0.298828 -5.0996,2.09961 4.5996,3.800781 -5,-1 -2.0996,-5.099609 -4.1992,-2.800782 -1.9004,0.09961 3.6992,3.701172 -4.6992,3.5 8.1992,4.298828 0.4004,5.40039 2.9004,3 4.8008,0.400391 0.3984,3.599609 4.4004,3.09961 -1.9004,2.701172 0.5,2.699218 -3.7988,1.400391 -0.5,2 -5.3008,-0.800781 3.5,-7.798828 -0.5,-3.701172 -6.6992,-3.298828 -3.8008,-7.400391 -3.7988,-3.699219 -3.7012,-1.701172 0.9004,-4.199218 -2.9004,-2.900391 -11.4004,-1.400391 -2.1992,1 0.5996,4.800782 -4.2988,4.699218 1.0996,1.701172 4.6992,4.199219 0.2012,2.5 5.2988,0.599609 0.8008,1.09961 5.9004,2.90039 -1.1016,2.800782 -18.5996,-6.201172 -6.5996,-1.699219 -13,-1.599609 -1.1992,1.798828 6,3.101562 -2.8008,3.59961 -6.4004,-3.300782 -5,2.300782 -7.6992,0.09961 -2.0996,1.900391 -5.4004,-0.59961 2.5,-3.300781 -3.2012,-0.199219 -12.3983,4.59961 -7.7012,2.699218 0.4004,3.5 -6,1.201172 -4.0996,-1.90039 -1.2012,-3.09961 5.1016,-0.701172 -3.6016,-3 -12.29883,-1.798828 4.2988,3.398438 -0.7988,3.300781 4.6992,3.300781 -1.0996,3.798828 -4.5996,-1.90039 -4.0996,-0.298828 -8.1016,5.40039 4.3008,4.199218 -3.1992,1.400391 -11.6016,-3.59961 -2.0996,2.199219 3.4004,2.400391 0.1992,2.798828 -3.7988,-1.5 -6.0996,-1.699219 -1.9004,-5.800781 -1,-2.59961 -8.0996,-4.099609 2.8984,-0.699219 20.2012,4.199219 6.5,-1.5 3.6992,-2.900391 -1.5,-3.699218 -4.0996,-2.59961 -17.6992,-6.201172 -11.7012,-1.298828 -7.6992,-3.201172 -3.7012,1.900391 -6.3984,2.099609 -3.2012,0.5 0.4004,3.800782 7.3008,3.699218 -2.9004,4.201172 6.5,6.298828 -1.7012,4.800782 4.9004,4.199218 -0.9004,3.800781 7.4004,3.90039 -0.9004,2.89844 -3.3984,3.400386 -8,7.400386 5.3984,2.80078 -4.5,3.29883 0.9004,1 -2.5996,3.40039 2.4004,5.59961 -1.5996,1.90039 2.5,1.30078 1,2.89844 2.0996,3.60156 5.2988,1.5 0.9004,1.5 2.4004,-0.70117 4.8008,1.40039 1.0996,2.90039 -0.7012,1.59961 3.8008,4 2.0996,1.09961 v 1.09961 l 3.4004,1.10156 1.6992,1.59961 -1.5996,1.29883 -3.9004,-0.19922 -0.7988,0.59961 1.5,2 2,4 1.7988,0.20117 1,-1.40039 1.5,0.29883 4.9004,-0.59961 3.8008,3.5 -0.9004,1.30078 0.8008,1.90039 3.8984,0.29883 2.3008,2.70117 0.1,1.19922 6.7012,2.19922 3.5996,-1 3.5996,2.90039 2.90043,-0.0996 7.6992,2 0.4004,1.90039 -1.3008,3.19922 1.8008,3.5 -0.3008,2.09961 -4.7988,0.40039 -2.2012,1.80078 0.4004,2.69922 4.3008,-1 0.4004,1.40039 -6.90043,2.59961 3.29883,2.5 -3.19923,5.20117 -3.5996,1 5.09963,3.69922 6.1992,2.40039 7.6016,5.40039 0.3984,-0.80078 4.6016,1.09961 7.6991,1 7.5996,3.09961 1.2012,1.20117 2.8984,-1 5.1016,1.29883 2.0996,2.60156 3.5996,1.5 1.5,0.19922 4.3008,3.80078 2.3984,0.5 0.6016,-1.60156 2.5,-2.59961 -7.3008,-7.5 -0.4004,-4.19922 -6,-6.09961 3.5996,-6.5 4.6016,-1 1.3984,-3.70117 4.4004,-1.40039 5.0996,-2.69922 4.7012,1.5 5,-0.30078 1.9004,3.90039 0.6992,6.09961 -4.6992,-0.89844 -4.1016,1 1,4.59961 -5.0996,-0.59961 0.5996,2.09961 3.2012,1.59961 3.6992,5.69922 6.5,2.20117 1.5,2.19922 -0.5996,2.59961 0.5996,1.60156 2.5996,4.09961 -0.5996,-4.70117 3.8008,-1.59961 2.4004,3.59961 4.6992,3.90039 -4.0996,2 -5.3008,-1.59961 0.1,5.40039 3.5,0.40039 -0.3984,4.29883 4.5996,2.20117 0.5996,6.69922 1.9004,4.5 -0.2012,1.5 -8,1.69922 -7.6992,-1.09961 -4.3008,-3.19922 -5.2988,-1.30078 -2.5,-4.79883 -1.3008,0.39844 -3.9004,-3.39844 1.2012,-3.10156 -1.9004,-1.89844 -1.9004,0.5 -5.2988,4.69922 -1.8008,0.19922 -3.8008,-0.89844 -3.1992,-2.90039 -1.1992,-2.5 -3.3008,1.90039 2.9004,7.29883 -0.7012,2 3.8008,5.09961 -2.4004,1.10156 -2.0996,-1.60156 -6.3008,-0.89844 -2.0996,1 -5.9004,1 -2.8983,-0.10156 -5.7012,2.40039 h -4.4004 l -3,-1.19922 -5.5996,1.79883 -1.9004,-1.19922 0.2012,3.5 -1.2012,1.40039 -1.2988,1.40039 -1,2.69922 1.0996,4.90039 v 0.19922 l -2.1992,4.5 -1.30083,5.30078 h -0.1 l -0.5996,1.69922 -0.6016,4.80078 -1.0996,3 0.4004,0.40039 -1.4004,2.09961 3.9004,9.40039 0.69923,1.59961 0.3008,0.90039 -0.4004,2.59961 -0.1,2.29883 -0.50003,3.5 h 2.69923 l 3.1016,4.40039 3.7988,5.09961 2.5,4.80078 1.7012,1.40039 1.7988,3.40039 -0.1992,1.39844 2.0996,3.70117 3,1.29883 2.8008,2.5 3.5995,7.20117 v 3.79883 l 0.9004,4.40039 4.0996,6.09961 2.5,1.10156 4.0996,4.39844 1.9004,5.20117 3.2988,5.40039 3.1016,2.29883 0.5,2.59961 1.7988,1.90039 0.9004,2.80078 0.4004,2.79883 -0.5996,1.20117 0.6992,2.90039 -1.0996,0.39844 1.7988,2.60156 1.3008,4.69922 1,1.90039 v 3.5 l 1.5996,3.79883 4,0.30078 1.7012,-0.90039 2.7988,0.20117 0.8008,-1.60156 1.5,-0.5 1.0996,-1.69923 1.4004,-0.40039 4.6992,-0.29883 3.5,-1.20117 3.2012,-2.69922 1.6992,0.40039 2.5,-0.40039 4.6992,-4.5 8.8008,-3 5.4004,-2.70117 v -2.19922 l 0.9004,-2.90039 4,-1.69922 2.5,-0.30078 3.5996,-2.19922 3.0996,0.59961 2.5996,-1.80078 -0.1992,-2.59961 2,-1.59961 3.5,0.0996 1.1992,-1.40039 0.3008,-3.09961 3.2988,-2.40039 h 2.5 l 0.5,-0.79883 -1.0996,-4.30078 0.7012,-3.19922 1,-1.59961 2.5,0.39844 1.6992,-4.39844 2.1992,-2.10156 0.7012,-1.79883 1.6992,-3.80078 -0.1992,-1.40039 -2,-0.89844 -1.7012,-2.10156 -2.8984,-3.69922 -3.4004,-1.09961 -4.0996,-0.90039 -3.3008,-2.30078 -3,-4.39844 -1.3008,-5.10156 -1.2988,-2.19922 -3,4 -3.7012,4.09961 -3.2988,4.40039 -3.4004,-0.19922 -4.5996,-0.20117 -4.2012,1 -0.3984,-1.79883 -0.9004,0.39844 -1.3008,-2.5 -1.5,0.5 -1.7988,-1.29883 -1,-1.59961 -0.9004,-2.10156 -1.8008,-1.79883 -0.9004,-2.09961 0.4004,-2.20117 -0.6992,-2.59961 -4,-2.69922 -1.2012,-2.30078 -2.8984,-1.40039 -2.7012,-5.59961 -2.4004,-4.80078 0.3008,-1.5 -1.5,-2.79883 3.3008,0.29883 1.6992,-2.5 3.6992,2.10156 2.8008,-1 5.1992,8.5 4.4004,6.09961 5.5,1.79883 6.0996,5 7,2.10156 5.1016,-3.10156 4.0996,-1.09961 2.7988,1.09961 3.3008,7.90039 6.3008,0.80078 6.1992,1.5 10.5996,1.90039 7.5996,-0.90039 9,-0.0996 10,-1.20117 4.9004,4.90039 2.2012,4.59961 4.1992,1.59961 7.0996,5.5 1.9004,2.5 -2.4004,2.30078 8.0996,7.80078 4,0.79883 7.7012,-3.90039 1.6992,6 0.8008,7.80078 2.5996,8.19922 3.5,12.5 5.9004,8.80078 1.4004,4 2,8 3.3984,6.19922 2.2012,3 2.5,6.5 3.0996,9 5.5996,6 2.2012,-1.89844 1.6992,-4.30078 5.0996,-1.80078 -1.9004,-2.19922 2.3008,-4.90039 2.9004,-0.29883 -0.7012,-10.90039 1.9004,-6.09961 -0.6992,-5.30078 -1.9004,-8.40039 1.1992,-4.90039 2.6016,-0.29883 4.7988,-2.30078 2.5996,-1.59961 -0.2988,-2.90039 5,-4.19922 3.7988,-4.09961 5.3008,-7.5 7.5,-4.40039 2.4004,-3.80078 -0.9004,-4.79883 6.5996,-1.30078 3.8008,0.0996 0.5,-2.40039 2.1992,0.60156 1.7012,0.69922 0.5996,-1.19922 2.5996,1.29883 1.1992,-3.5 -0.8984,-2.69922 5.1992,0.29883 2.8008,3.70117 1.5,3.09961 0.7988,3.30078 2.0996,3.29883 4.6016,5.20117 3.3984,0.89844 -0.2988,2.30078 5.2988,7.40039 2,6 -0.8984,8 3.5996,1.5 3.2988,0.5 5.8008,-4.5 3.1992,-3.30078 3.1016,5.40039 2,8.09961 2.6992,7.59961 2.5996,3.40039 0.2012,7 2.1992,3.80078 -1.3008,4.90039 0.9004,4.79883 -1.1992,6.09961 -0.4004,4 1.3008,3.60156 0.6992,-3.80077 2.9004,3.09961 3.1992,3.59961 1.2012,3.20117 2.2988,2.40039 1.4004,2.69922 -0.4004,4.69922 2.2012,3.5 1,5.30078 3.3984,4.30078 0.8008,3.29883 6.8008,5.09961 5.5,4.80078 4,-0.5 v -2.09961 l -2.3008,-5.70117 -2.0996,-1.79883 -0.5,-3.80078 -0.5996,-2.19922 0.5,-2.90039 -0.6016,-4.30078 -2.5,-4.29883 -3.5,-3.90039 -1.3984,-0.59961 -3.1016,-3.40039 -3.3984,-0.69922 -3.4004,-3.70117 -1.3008,-5.5 -2.6992,-5.90039 -3.7012,-0.19922 -0.6992,-4.59961 1.4004,-5.70117 2.1992,-9.39844 -0.1992,-7.10156 h 4.9004 l -0.3008,5.10156 4.8008,-0.20117 5.2988,3 3.5,6.59961 2.5996,3.40039 4.8008,0.90039 4.4004,3.59961 -1.2012,4.40039 2.3008,4.09961 6.5996,-6 4.2012,-5.29883 6.0996,-4.20117 4.2988,-4.19922 -0.3984,-11.30078 -4,-11.90039 -4.1016,-5.09961 -5.6992,-4 -6.5,-8.40039 -5.3008,-6.69922 0.6016,-4.5 3.6992,-6.09961 6.5,-5.40039 2.4004,-1.09961 7.7988,2.09961 -0.8984,2.40039 2.1992,4.69922 3.0996,-0.40039 0.7012,-6.79883 5.7988,-0.90039 7.2012,-3.30078 2.5,-3.09961 2.2988,2 2.9004,-2.79883 6.0996,-0.70117 6.5996,-5.5 6.4004,-5.90039 3.4004,-7.59961 2.3008,-8.5 2.0996,-6.90039 2.7988,-0.59961 -0.1,-5.09961 -0.7988,-5.19922 -3.9004,-2 -2.4004,-3.40039 2.8008,-1.80078 -1.6016,-4.79883 -5.5,-4.90039 -5.5,-5.90039 -4.5996,-6.30078 -7.0996,-3.5 0.9004,-4.5 3.7988,-3.19922 1,-3.5 6.7012,-1.80078 -2.3008,-3.29883 -3.5,-0.20117 -5.9004,-2.5 -3.7988,4.60156 -5.0996,-1.90039 -1.4004,-2.80078 -4.8008,-1.09961 -4.7988,-4.30078 1.2988,-3 5,-0.29883 1.3008,-4.09961 3.5996,-4.5 3.4004,-2.20117 4.5,3.30078 -2,4.29883 2.2988,2.5 -1.2988,3 4.7988,-1.79883 2.4004,-3 6.3008,-1.80078 3.4004,1.70117 3.3984,0.69922 0.9004,1 0.4004,3.5 1,1.09961 -0.9004,0.80078 -0.1,2.79883 1.9004,1 1.6992,0.60156 0.7012,1.19922 1.2988,-0.5 0.1,-1.19922 3.2012,1.19922 6.0996,5.5 -3.4004,1.09961 5.3008,6.59961 1.0996,4.80078 2.0996,3.5 4.5996,-0.5 3.1016,-2.69922 4.2988,-1.20117 0.5,-3.5 -3.4004,-7.40039 -3.2988,-4.19922 -8.3008,-7.5 -4.4004,-2.80078 -2.5996,-1.09961 0.3008,-0.69922 -1.3008,-2.70117 1.4008,-1.69922 2.9004,-1.09961 0.9004,-1.90039 0.2988,-1.09961 1.9004,-1.40039 -2.8008,-4.59961 0.3008,-2.09961 1,-2.20117 2.1992,0.40039 -0.5,-2.09961 4.1016,-4.70117 5.1992,3.10156 3.0996,-0.10156 4.5996,-3.69922 0.9004,-3.69922 2.0996,-7.30078 2,-7.40039 -1.2988,-4.29883 1,-9.10156 -5.3008,-9.89844 -5.5,-7.40039 -1.4004,-6.20117 -4.6992,-5.19922 -12.8008,-6.69922 -5.5996,-0.40039 -0.4004,3 -5.7988,-1.30078 -5.7012,-3.79883 -8.1992,-0.80078 5,-14.19922 3.5,-11.70117 13.1992,-1.69922 15.1016,1 2.5,-2.90039 8,0.90039 4.2988,4.29883 6.4004,-0.59961 8.5,-1.59961 -7.6992,-3.59961 v -9.800776 l 9.0996,-2 12.2988,7.201166 3.6016,-6.400386 -3.2012,-4.800776 4.7012,-0.5 6.5996,8.201162 -2.5,4.69922 -0.7012,6 0.2012,7.5 -5.7012,1.30078 2.8008,2.79883 -0.1,3.59961 6.5,8.30078 16.1992,13.59961 10.5,8.90039 5.7012,4.30078 1.6996,-5.80078 -4.5,-6.19922 5.6992,-1.5 -5.3984,-7 5,-3.10156 -4.7012,-2.59961 -3.4004,-5 4.1016,-0.29883 -9.1016,-8.70117 -6.7988,-1.29883 -2.9004,-2.40039 -1.0996,-5.80078 -3.0996,-3.90039 7,0.90039 1.3984,-2.59961 4.7012,2.19922 6.0996,-4.59961 11.5,4.09961 -1.6992,-2.69922 2,-3.59961 1.5996,-4.099606 3,-0.70117 6.5996,-4.298826 10,1.19922 -1,-1.5 -3.8008,-2.40039 -4.1992,-1.5 -9.0996,-4.699219 -8.2012,-3 6.2012,0.40039 2,-2.5 -33.2012,-22.101562 -9.5,-2.398438 -15.7988,-2.5 -8,0.298828 -15.3008,-1.5 1.8008,2.400391 8.5,3.400391 -2.5,1.699218 -14.3008,-4.798828 -6.9004,0.59961 -9.2988,-1 -7,0.09961 -3.9004,1.099609 -7.3008,-1.5 -5.0996,-3.90039 -6.5996,-2.19922 -9.3008,-0.900391 -14.7988,1 -16.3008,-4 -7.9004,-3.099609 -40.3984,-3.400391 -2.1016,2.201172 9.4004,4.898438 -7.5996,-0.699219 -1,1.400391 -9.8008,-1.59961 -5,1.398438 -9.3984,-2.298828 3,5.5 -9,-2.09961 -10.1016,-4.201172 -0.3984,-2.199218 -6,-3.300782 -9.9004,-2.699218 -6.0996,0.09961 -9.5,-0.900391 4.7988,3.900391 -17.4004,-0.800781 -3.7988,-2.398438 -13.5996,-0.800781 -5.2012,0.800781 -0.1992,1.298828 -5.8008,-3.298828 -2.4004,1 -7.1992,-1.300782 -5.5996,-0.699219 1.0996,-1.5 6.5996,-2.800781 2.4004,-1.5 -2.5,-2.599609 -5.5,-1.800782 -11.5996,-2.40039 -10.9004,-0.09961 -1.9004,1.201172 -4.0996,-2.40039 -9.4004,-0.701172 3.5,-1.199219 z m 297,129.298821 -1.3008,0.90039 4.4004,2.80078 -1.9004,2.79883 6.8008,8.40039 8,6.09961 6.3984,8.20117 2.4004,4.79883 5.5996,6.70117 3.8008,6.09961 4.6992,5.30078 -0.1,-4.90039 6.5,3.79883 -3,-4.39844 -9.5996,-6.40039 -3.6992,-9 8.8984,2 -13.6992,-11 -7.1992,-6.20117 -5.2012,-6.09961 -6.9004,-5.90039 z m 40.0996,54.70117 1.7988,4.90039 4.4004,8.79883 -5.1992,0.30078 0.5996,4.90039 4.6992,6.29883 5.7012,-0.0996 -1.5996,-6.90039 10.8984,4.30078 0.4004,-6.30078 6.4004,-1.69922 -6,-7.09961 -1.8008,2.59961 -4.5,-1.30078 -5.2988,-2.09961 z m 14.4004,26.40039 -4.8008,1.19922 0.1992,4 5.1016,7.19922 1,7.80078 -1.7012,2.5 -4.5,6.40039 -5.0996,-3.09961 v 11.39844 l -6.3008,-1.29883 -9.6992,1.90039 -2,4.39844 -3.9004,3.30078 -1.0996,4.09961 -4.3008,2 4,4.40039 4.1016,1.80078 0.8984,5.79883 3.6016,2.5 2.5,-2.69922 -0.8008,-10.90039 -7.4004,-4.69922 6.2012,-0.20117 5.0996,-3 8.5996,-1.40039 2.4004,4.80078 4.6992,2.5 4.4004,-7.40039 9.1992,-0.40039 5.4004,-3 0.5996,-4.5 -2.5,-3.19922 -0.5996,-5.09961 -3.5996,-6.59961 1.3008,-6.5 -2.8008,-5.10156 z m -15.9004,44.89844 -1,2.70117 -3.4004,-0.80078 -1.3008,3.90039 1.2012,3 4.2988,1.80078 -0.1,-3.70117 2.0996,-1.5 3.1016,2.09961 1.2988,-3.89844 -1.5996,-2.20117 z m -47.7012,58.20117 -3.2988,4.90039 -1.9004,6.29883 1.5,4.70117 4,5.5 1.4004,-5.30078 1.1992,-10.30078 0.1,-3.89844 z m -56.1992,33.40039 -5.8008,1.79883 -2.1992,2.90039 1,5.5 4.9004,2 4.2988,-3.09961 0.7012,-3.70117 2,-2.79883 -1.5996,-2.5 z m 60.3008,10.19922 -0.8008,5.80078 1.0996,10.09961 -2.5996,-2.09961 1.0996,6.09961 1.3008,2.79883 3.2988,3.70117 0.4004,-2.30078 1.9004,1.5 -1.5996,1.59961 0.1,2.70117 3,1.40039 5,-1 4,3.89844 1.1992,-2.39844 2.5,3.39844 4.7012,3.10156 0.2988,-2.90039 -2.0996,-1.59961 0.1,-3.5 -7.5,-3.5 -2.3984,0.69922 -3,-0.69922 -2,-5.10156 0.1,-5.19922 2.9004,-2.09961 0.5996,-5.30078 -2.5996,-4.59961 0.3984,-2.69922 -0.7988,-1.60156 -1.4004,1.70117 -3.802,-1.90039 z m 2.7988,32.40039 3.5,4.90039 2.7012,3.19922 0.8984,-5.59961 -2.2988,-2.30078 z m 22.9004,5.79883 4,4.90039 0.3008,2.40039 -3.3008,-0.5 1.1992,3.90039 1.8008,0.29883 0.5996,4.60156 2.5996,-1.5 -1.7988,-3.90039 -0.3008,-2.20117 4.5,1.70117 -2.4004,-7.20117 -1.7988,-2.39844 z m -12.9004,4.30078 1.2012,3 -0.1016,3.30078 0.5,3 3.4004,-1.90039 2.3008,-2.80078 -0.2012,-2.59961 h -3.5 z m 12.8008,4.19922 -3.5996,6.20117 0.5,-4.30078 -3.1016,0.40039 -0.1992,3.90039 -1.3008,1.79883 -1,1.80078 3.9004,4.40039 1.5996,-1.90039 1.4004,-4.09961 1.8008,-2.09961 z m -247.0996,9.10156 -2,10.39844 1.3984,9.20117 2.9004,5.09961 4.8008,-1.5 2.2988,-1.80078 0.6016,-6.69922 -3.1016,-6.69922 -2.7988,-4.5 z m 255.5,0.39844 0.7988,4.90039 -4,0.20117 -0.6992,2.89844 -4.2012,1.70117 -2.1992,-2.90039 -2.9004,2.40039 -3.4004,1.79883 -1.7988,5.40039 1,1.90039 4,-3.59961 2.5996,0.29883 1.5996,-2.69922 3.8008,3.09961 -1.5,3 1.9004,4.70117 6.8984,3.69922 1.4004,-3 -2.0996,-4.69922 2.4004,-3.30078 2.5,6.5 1.5996,-5.80078 -0.5996,-3.59961 -0.9004,-4.29883 -0.5996,-2.40039 -0.7012,-3.20117 z m -45.4004,18.10156 -2.3008,0.0996 -2.5996,5 -4.0996,4.40039 -4.5996,3.59961 -2.2012,2.40039 -2.5996,4 -3.8008,5.09961 -6.7988,1.40039 -2.4004,1.19922 -1,5.40039 -4.3008,1.19922 -4.1992,-2.19922 -3.3008,4.29883 -0.5996,6 0.8008,5.60156 2.6992,5.5 2.8008,1.79883 0.5996,8.59961 4.5996,0.70117 3.8008,-0.40039 1.9004,3.19922 6.7988,-2.39844 2.8008,2.09961 4,0.40039 2.0996,3.89844 6.5996,-2.89844 0.7012,2.29883 2.5,-9.79883 0.3984,-6.40039 5.5,-4.40039 -0.1992,-5.80078 1.8008,-4.39844 6.6992,-0.80077 -6.4004,-5.90039 0.9004,-3 -4.4004,-6 3,-5.79883 4,-2.20117 -1.0996,-3.19922 3.8008,-0.30078 0.1992,-2.5 -4.8008,-1.90039 -3.7988,-1.79883 -0.4004,-2.80078 z m -123.0996,9.29883 0.5996,3.30078 6.1992,7.09961 4.4004,3.59961 3.0996,5.5 5.2012,4 2.1992,5 1.6992,5.5 4.9004,5.40039 4.2012,9 2.6992,4.80078 4.0996,5.19922 2.3008,3.90039 7.0996,5.29883 4.5,5.30078 6.1992,-0.0996 0.7012,-9.90039 1.6992,-8 -2.5996,-4.09961 -4.0996,-0.59961 -1.9004,-3.5 -0.9004,-4.5 -2,-0.20117 -3.2988,-2.19922 2.2988,-5.20117 -4.2988,-3 -3.4004,-5.39844 -4.8008,-4.40039 -5.7988,-0.0996 -5.5,-6.90039 -3.2012,-2.59961 -4.5996,-4.40039 -5.1992,-6.30078 -8.9004,-1.19922 z m -122.9004,8.09961 -0.2012,0.20117 0.2012,0.0996 v -0.19922 z m 292.5,16.60156 -5.5996,4.59961 -6.5,0.29883 -7.1016,-0.89844 -4.5,-1.90039 -4.7988,4.79883 -1.0996,2.60156 -3,9.69922 -0.9004,5.09961 -2.5,4.20117 1.5996,4.39844 2.4004,0.10156 0.5996,6.19922 -1.9004,5.90039 2.3008,1.79883 3.6992,-0.89844 0.2012,-9.20117 -0.2012,-7.5 3.9004,-1.90039 -0.6992,6.20117 3.8984,3.79883 -0.7988,2.5 1.2988,1.80078 5.7012,-2.5 -3,5.19922 2.0996,2.30078 3.0996,-1.90039 0.3008,-4.19922 -4.8008,-7.40039 1.0996,-2.19922 -5.0996,-8.20117 5.0996,-2.5 2.5,-3.79883 2.5,0.89844 0.5,-2.89844 -10.5996,2.19922 -3.0996,2.90039 -5,-5.70117 0.8008,-4.89844 4.8984,-0.90039 9.5,-0.30078 5.4004,1.20117 4.3008,-1.20117 4.5,-6.40039 z m -395.0996,39.89844 -0.2012,0.5 0.3008,0.20117 0.1992,0.29883 0.2012,-0.29883 -0.4004,-0.40039 z m 286.2988,8.5 -4.1992,6.10156 5.0996,0.5 0.8008,2.69922 10.1992,2.69922 2.4004,-0.79883 4.0996,0.59961 6.4004,2.5 5.1992,1.09961 5.8008,0.5 5.0996,-0.19922 6.0996,2.59961 6.5996,-2.40039 -6.6992,-3.79883 -8.4004,-1.20117 -1.7988,-4.19922 -10.3008,-3.09961 -1.4004,2.69922 -10.7988,-0.69922 -0.6016,-2.20117 -2.3984,-0.5 -4.4004,-2.5 z m 66.0996,14.10156 -1.5996,2.29883 h -3.1992 l -2.2012,3.70117 3.1016,0.0996 3.8984,-0.90039 6.7012,-1.30078 -1.2012,-2.69922 -3.5996,0.5 z m 28.3008,0 -5.1992,2.29883 -3.8008,0.5 -3.4004,-1.90039 -4.5996,1.30078 -0.1992,2.40039 7.5,0.79883 8.5996,-1.79883 z m 22.8008,1.09961 -1.8008,0.79883 -4,0.30078 -4.9004,1.40039 -0.7988,1.5 -5.8008,2.59961 -2.8008,3.90039 -0.6992,2.19922 0.5996,0.70117 5,-1.40039 4.0996,-4.80078 4.9004,-1.79883 6.0996,-2.80078 2.2012,-1.80078 z m -40.4004,7 -5.4004,1.29883 7.0996,4.5 2.4004,-0.0996 0.5,-1.79883 -1.8008,-1.90039 z"
     id="path305"
     inkscape:label="Asia"
     style="mix-blend-mode:normal" />
</svg>
