<?xml version="1.0" encoding="UTF-8" standalone="no"?>
<!-- Jugendstil Floral Ornament
     This ornament is used on the homepage. You can edit it with tools like Inkscape or Adobe Illustrator.
     The ornament is designed to grow from bottom (root) to top (flowers).
     Original viewBox dimensions are based on the traced path bounds.
-->

<svg
   viewBox="95 35 45 135"
   version="1.1"
   id="svg1"
   sodipodi:docname="jugendstil-ornament.svg"
   inkscape:version="1.3.2 (091e20e, 2023-11-25, custom)"
   xmlns:inkscape="http://www.inkscape.org/namespaces/inkscape"
   xmlns:sodipodi="http://sodipodi.sourceforge.net/DTD/sodipodi-0.dtd"
   xmlns="http://www.w3.org/2000/svg"
   xmlns:svg="http://www.w3.org/2000/svg">
  <defs
     id="defs1" />
  <sodipodi:namedview
     id="namedview1"
     pagecolor="#ffffff"
     bordercolor="#000000"
     borderopacity="0.25"
     inkscape:showpageshadow="2"
     inkscape:pageopacity="0.0"
     inkscape:pagecheckerboard="0"
     inkscape:deskcolor="#d1d1d1"
     inkscape:zoom="8"
     inkscape:cx="23.125"
     inkscape:cy="70.4375"
     inkscape:window-width="2560"
     inkscape:window-height="1566"
     inkscape:window-x="-11"
     inkscape:window-y="-11"
     inkscape:window-maximized="1"
     inkscape:current-layer="ornament" />
  <g
     id="ornament">
    <path
       id="main-ornament-path"
       d="m 132.2909,164.87936 c -0.10814,-0.10815 -0.19663,-1.13561 -0.19663,-2.28325 0,-2.29955 -1.06492,-7.02507 -2.90948,-12.91064 -1.54186,-4.9197 -1.81446,-6.12149 -2.27926,-10.04829 -0.67125,-5.67109 -0.24232,-10.06177 1.60383,-16.41744 2.11319,-7.275 2.03163,-8.74115 -0.64113,-11.52455 -0.87803,-0.91438 -1.59642,-1.79191 -1.59642,-1.95007 0,-0.47119 1.46738,-0.32625 2.15243,0.21261 1.2011,0.94478 1.84073,2.70176 1.94385,5.33946 0.0518,1.32489 0.15276,2.46748 0.22437,2.53909 0.1077,0.1077 0.49456,-0.95791 0.52253,-1.17755 -0.012,-0.0337 0.0794,-0.4349 0.23184,-0.91067 0.64908,-2.02659 0.90171,-4.0752 0.69181,-5.61 -0.21257,-1.55437 -0.62397,-2.38748 -2.46928,-5.00043 -1.68915,-2.39185 -1.85688,-4.52867 -0.65098,-8.29326 0.8864,-2.767165 1.04973,-5.20887 0.40541,-6.060743 -0.53091,-0.701916 -0.49981,-0.885853 0.12226,-0.723178 1.37942,0.360725 2.91288,2.993059 2.91288,5.000231 0,1.012822 -0.63477,2.971942 -0.86033,3.732452 -0.028,0.205592 -0.21575,0.597399 -0.31835,1.070331 -0.15574,0.717847 -0.11751,0.833387 0.23141,0.699497 0.22987,-0.0882 0.40152,-0.28584 0.47264,-0.37367 0.14843,-0.18333 0.17022,-0.256484 0.44511,-0.328368 0.46569,-0.121782 0.45665,-0.03646 -0.13253,1.250478 -0.55764,1.21805 -0.61783,1.65967 -0.50956,3.73888 0.13892,2.66783 0.702,5.66056 1.08056,5.74312 0.13898,0.0303 0.59096,-1.55268 1.0044,-3.51776 0.6589,-3.13176 0.75693,-4.19371 0.79397,-8.601369 0.0381,-4.534516 -0.0176,-5.236479 -0.56701,-7.145749 -0.82284,-2.859412 -2.04952,-5.042182 -3.53366,-6.287841 -1.33198,-1.117948 -3.07825,-1.586571 -3.77069,-1.011893 -0.25722,0.213474 -0.43022,0.224216 -0.54777,0.03401 -0.19988,-0.323408 0.92173,-0.806328 1.87273,-0.806328 1.869,0 4.37166,2.510045 5.65479,5.671472 0.66553,1.639753 0.95684,1.709598 0.84653,0.202959 -0.36971,-5.049138 -2.55035,-9.113573 -5.82643,-10.859709 -2.1768,-1.16022 -4.00759,-1.08746 -4.99492,0.198511 -0.28329,0.368969 -0.32343,0.349488 -0.33083,-0.160552 0.3474,-1.905528 4.37522,-1.596015 6.36744,0.01304 0.88331,0.713423 -0.0637,-0.173285 1.71129,1.660245 0.50506,0.521727 1.23457,1.480819 1.63634,2.116786 1.33675,2.115972 1.35866,1.637405 0.17523,-3.826075 -0.35721,-1.649118 -0.58714,-3.938464 -0.99305,-4.951333 -0.37505,-0.935876 -0.81084,-1.179121 -1.09916,-1.519912 -0.0725,-0.08566 -0.93467,-1.270093 -1.91744,-2.263141 -1.46216,-1.477438 -2.08704,-1.919214 -2.94443,-2.63395 -1.00576,-0.838423 -2.93869,-1.34262 -4.06589,-1.492683 -2.08353,-0.277376 -4.16083,-0.710253 -5.20292,0.408308 -0.64278,0.68994 -1.08623,0.448582 -1.08623,-0.591204 0,-0.942839 1.22651,-2.191043 2.59759,-2.643541 1.52491,-0.503267 3.99714,-0.186132 5.91704,0.75903 2.02748,0.998124 3.26679,2.285917 5.68668,5.90912 0.96657,1.44722 1.8069,2.581813 1.8674,2.521318 0.0605,-0.0605 -0.32457,-1.164144 -0.85569,-2.452553 -3.74976,-9.096217 -8.40333,-14.541312 -13.41562,-15.697494 -3.7885,-0.873889 -7.36905,0.253787 -9.06895,2.856214 -0.82571,1.264095 -0.79279,3.433799 0.066,4.347894 0.79674,0.848096 1.38313,2.380722 1.38313,3.615051 0,2.836868 1.00892,4.82958 2.64657,5.227208 0.99162,0.240768 1.11429,0.363159 0.77442,0.772672 -0.44107,0.531456 -2.87389,0.488762 -3.66348,-0.06429 -0.47661,-0.333831 -0.73446,-0.369312 -1.08644,-0.149496 -0.40175,0.250895 -0.48242,0.157461 -0.62298,-0.721522 -0.0888,-0.555357 -0.38688,-1.288118 -0.66239,-1.628358 -0.4295,-0.530414 -0.56185,-0.568051 -0.92824,-0.263973 -0.23503,0.195054 -0.42732,0.487832 -0.42732,0.650617 0,0.356907 -3.19016,3.418363 -3.37229,3.236236 -0.24599,-0.245987 -0.84372,-3.474767 -0.85293,-4.60732 -0.01,-1.231024 0.11261,-1.180885 -1.65106,-0.675057 -0.320728,0.09198 -0.746071,0.330177 -0.945209,0.529315 -0.515375,0.515376 -0.937729,0.447797 -0.787669,-0.126031 0.09556,-0.365429 -0.168645,-0.648118 -1.051252,-1.124794 -1.172219,-0.633089 -2.4552,-2.326357 -2.4552,-3.240355 0,-0.626645 0.400362,-0.543795 0.875361,0.181145 0.546949,0.83475 1.824031,1.330208 2.905678,1.127289 0.506269,-0.09498 1.545631,-0.735513 2.452491,-1.511425 1.72662,-1.477288 3.44229,-2.648561 3.99937,-2.730323 0.39221,-0.05756 2.18328,-1.885826 3.33331,-3.402533 2.2219,-2.930321 6.08353,-3.837638 10.25295,-2.409006 0.65503,0.224442 1.46306,0.472658 1.79562,0.551592 0.56712,0.134604 0.61202,-0.0063 0.14772,-0.550736 -0.29897,-0.350588 0.007,-0.02629 -0.48284,-0.577065 -0.058,-0.06524 -0.32974,-0.413397 -0.72018,-0.775432 -0.39044,-0.362035 -1.65861,-1.304256 -2.81817,-2.093825 -2.52405,-1.718686 -5.07076,-2.427435 -7.94355,-2.210692 -2.06375,0.155704 -4.63316,1.009107 -5.50545,1.828579 -0.75757,0.711705 -0.79923,1.694881 -0.0879,2.075554 0.7734,0.413914 0.64672,0.793972 -0.26466,0.793972 -0.70278,0 -0.79397,0.08968 -0.79397,0.780821 0,0.467039 0.18524,0.884485 0.46094,1.03878 0.58701,0.328506 0.27627,0.663968 -0.41253,0.445351 -0.70858,-0.224895 -1.20794,-1.540633 -1.02128,-2.690912 0.34547,-2.128862 2.93954,-3.991802 6.44667,-4.629702 1.04551,-0.190164 1.8529,-0.423475 1.79419,-0.518469 -0.12299,-0.198995 -2.60935,-0.69776 -4.35676,-0.873967 -1.13207,-0.114158 -6.286534,0.190573 -8.150979,0.481884 -5.201676,0.812738 -8.812923,3.410263 -9.448068,6.795877 -0.303945,1.620165 1.000811,3.961039 2.404117,4.313247 1.458149,0.365972 3.404533,-1.37898 2.926808,-2.623912 -0.185789,-0.484158 -1.131234,-0.53497 -1.319529,-0.07092 -0.102151,0.25175 -0.197894,0.239344 -0.400575,-0.0519 -0.390762,-0.561521 0.120956,-1.337548 0.881991,-1.337548 1.340547,0 1.961208,2.274846 0.92432,3.387815 -0.759526,0.815255 -1.934091,1.250725 -2.631325,1.245148 -1.627223,-0.01302 -3.448119,-2.179051 -3.448119,-4.045916 0,-3.765221 2.691466,-6.265219 8.336707,-7.743645 3.095379,-0.810644 10.363712,-1.029077 13.260802,-0.398522 3.55081,0.772838 5.78642,1.685176 8.22413,3.356205 0.60847,0.417103 1.22243,0.75837 1.36435,0.75837 0.15413,0 0.20166,-0.621798 0.11803,-1.544091 -0.16275,-1.794798 0.12864,-2.508138 1.26446,-3.09549 1.13751,-0.588229 1.43013,-0.227632 0.49851,0.614314 -0.67258,0.607845 -0.79741,0.921388 -0.81961,2.058763 -0.0262,1.343138 0.63876,3.301459 1.38859,4.089341 0.20488,0.215274 1.2505,1.435463 2.32361,2.71153 1.07311,1.276068 2.03892,2.374389 2.14623,2.440713 0.10732,0.06632 0.15326,-1.001065 0.1021,-2.371976 -0.0557,-1.493629 0.0803,-2.480539 0.17384,-2.657493 0.13955,-0.434668 0.0468,-0.112895 0.11491,-0.378271 0.0527,-0.440645 1.63822,-2.754368 2.7858,-3.359131 1.4285,-0.752811 4.56683,-0.879909 5.81313,-0.235422 1.21072,0.626088 2.79821,2.402008 2.92571,3.84888 0.10837,1.229853 0.25093,1.394235 -0.3281,2.557069 -0.78415,1.574768 -2.02925,2.467013 -3.44263,2.467013 -1.91236,0 -3.3459,-1.42193 -2.83255,-2.809625 0.2598,-0.702306 0.74057,-0.889771 1.52973,-0.596474 0.83318,0.309655 0.51462,0.978792 -0.69003,1.449453 -0.26536,0.103676 0.34926,0.878912 0.89337,1.126826 1.16271,0.529764 2.32293,0.368934 3.08253,-0.427303 1.33022,-1.394374 1.60281,-3.115508 0.75616,-4.774376 -0.93166,-1.825412 -2.51319,-2.702195 -4.8742,-2.702195 -1.97252,0 -3.52365,0.857613 -4.5493,2.515288 -0.72673,1.174558 -0.79234,1.475402 -0.77469,3.552327 0.0234,2.757104 0.29118,3.603853 2.16684,6.852562 l 3.39738,6.664469 c 3.08956,8.379715 0.9515,-1.14128 3.22971,-3.379576 0.25637,-0.251876 0.75043,-0.727648 1.33658,-0.936299 0.7723,-0.274916 1.24305,-0.246796 1.93295,-0.166385 0.95241,0.111008 1.0669,0.526774 0.6563,1.104214 -0.20656,0.290492 -0.8078,0.113769 -1.11711,-0.225694 -1.02794,-1.163147 -2.16112,0.441103 -3.0035,2.69256 -0.71217,1.90345 -0.72402,5.332086 -0.0383,11.077696 0.84707,7.097233 1.08251,10.855707 1.08114,17.258514 -0.001,6.703087 -0.44587,10.426117 -1.7578,14.725247 -1.02164,3.34783 -2.19723,7.6924 -2.20115,8.13462 -0.004,0.40025 1.04817,-1.17449 1.57595,-2.35967 0.60087,-1.34935 2.68262,-2.56949 3.72562,-2.18366 0.55091,0.20379 0.53624,0.23318 -0.28641,0.57393 -1.15649,0.47903 -2.34872,1.64538 -3.65171,3.57242 -0.59054,0.87337 -1.38605,1.9412 -1.76779,2.37295 -1.86835,2.11314 -3.49634,7.54355 -3.76394,12.5552 -0.12021,2.25137 -0.0834,2.97051 0.14484,2.82945 0.16831,-0.10402 0.33061,-0.58585 0.51173,-1.26557 0.0479,-0.21879 0.146,-0.40192 0.43934,-1.19297 0.28991,-0.78179 0.82787,-2.10811 1.05762,-3.00492 0.613,-2.39275 1.773,-3.86881 4.53676,-5.77283 1.58429,-1.09146 2.49426,-2.36351 2.49426,-3.48673 0,-0.28619 0.1149,-0.52034 0.25534,-0.52034 0.798,0 1.08159,2.66401 0.41982,3.94372 -0.36892,0.71342 -0.72614,1.05713 -3.42043,3.2911 -0.67353,0.55845 -1.22459,1.12415 -1.22459,1.25712 0,0.13296 0.46032,0.24175 1.02294,0.24175 1.1627,0 2.2166,0.69621 2.81988,1.86283 0.52218,1.00979 0.49708,3.03792 -0.049,3.96241 -0.70837,1.19917 -2.50597,1.77019 -2.83918,0.90188 -0.25791,-0.67212 -0.20775,-0.70774 0.74497,-0.52901 0.74991,0.14068 0.97743,0.0674 1.32329,-0.42642 0.49272,-0.70346 0.53609,-2.29183 0.0784,-2.8726 -0.61211,-0.77676 -1.63403,-1.31114 -2.50735,-1.31114 -1.09975,0 -3.29441,1.09283 -3.82036,1.90235 -1.00655,1.54922 -1.40529,3.46406 -1.395,6.69901 0.01,3.0209 0.0895,3.54086 1.20938,7.87356 0.14109,0.54586 0.34388,0.99247 0.45063,0.99247 0.10676,0 0.34007,-0.76949 0.51848,-1.70996 0.31764,-1.67445 1.06757,-3.01805 1.4537,-3.54413 0.054,-0.0735 0.27658,-0.32532 0.61256,-0.52084 1.41235,-0.82188 3.12601,-1.21535 4.65204,-0.21545 1.84569,1.20934 1.62216,4.44857 -0.33142,4.80282 -1.14558,0.20773 -2.3655,-1.32353 -1.32954,-1.66885 0.18248,-0.0608 0.39734,0.14015 0.47748,0.44661 0.1793,0.68562 0.65419,0.7138 1.23392,0.0732 0.63428,-0.70087 0.53832,-1.73809 -0.24717,-2.67159 -0.60388,-0.71767 -0.84722,-0.81358 -2.05109,-0.80839 -1.97521,0.009 -2.93778,0.93004 -3.74254,3.58297 -0.59311,1.95525 -0.50017,4.55955 0.26721,7.48696 0.36822,1.40472 0.72847,2.72036 0.80054,2.92363 0.0776,0.21883 0.40975,-0.18969 0.81427,-1.00144 0.72619,-1.45727 2.06988,-2.41171 3.39528,-2.41171 0.79444,0 0.89383,0.4233 0.15449,0.65795 -0.28473,0.0904 -0.81238,0.51453 -1.17255,0.94258 -0.68672,0.81611 -1.06799,2.28959 -1.93657,7.48418 -0.2635,1.57589 -0.56758,2.77678 -0.67573,2.66863 z M 104.47599,69.692782 c 1.88965,-2.021845 2.07121,-2.485513 2.09758,-5.356828 0.0134,-1.456982 0.1167,-2.857475 0.2296,-3.112208 0.40961,-0.924157 -0.37592,-0.451438 -0.87958,0.529315 -0.28032,0.545855 -1.17595,1.661692 -1.99031,2.479637 -1.30975,1.315536 -1.48063,1.611013 -1.48063,2.560219 0,1.482795 0.55709,3.760001 0.91983,3.760001 0.16479,0 0.66137,-0.387061 1.10351,-0.860136 z m 6.86166,-0.476986 c -1.21991,-1.350298 -1.38536,-1.798039 -1.69047,-4.574647 -0.3883,-3.533735 -1.90196,-5.39659 -2.50767,-3.086177 -0.36138,1.378429 -0.0927,4.740108 0.46535,5.822058 0.26277,0.509465 0.95772,1.37291 1.54434,1.918766 0.85902,0.799327 1.27002,0.992465 2.11197,0.992465 h 1.04539 z m -9.20528,-4.193468 c 1.26858,-0.648684 2.21619,-1.539709 3.06139,-2.878587 0.92442,-1.464366 1.15868,-2.441775 0.58525,-2.441775 -0.81575,0 -2.6608,1.109007 -3.98801,2.397076 -1.17747,1.142744 -2.955095,2.188561 -3.505444,2.062329 -1.8159,-0.416508 -1.876053,-0.418234 -1.734664,-0.04978 0.249735,0.650798 2.00492,1.388896 3.331888,1.40114 0.74445,0.0069 1.67294,-0.195538 2.24959,-0.490403 z"
       style="fill:#000000;fill-opacity:0.85;stroke:none"
       sodipodi:nodetypes="ssssssssssccsssssscssssssssscssssscsscssssssssssssssscsscssssscsssscssssssscscssssscsccsscscsssssssscssssssssssscssccccssssssssssssscccsssscsccscssssssscsssssssssscssccsscssssssscssscssssscsssssccccscsscscssssssssssss" />
  </g>
</svg>
